<mxfile host="65bd71144e">
    <diagram id="wEH2lyJ63YzQqxxhGW6G" name="Page-1">
        <mxGraphModel dx="561" dy="242" grid="1" gridSize="10" guides="1" tooltips="1" connect="1" arrows="1" fold="1" page="1" pageScale="1" pageWidth="850" pageHeight="1100" math="0" shadow="0">
            <root>
                <mxCell id="0"/>
                <mxCell id="1" parent="0"/>
                <UserObject label="" mermaidData="{&#10;  &quot;data&quot;: &quot;graph TD\n    User[Pracownik biblioteki]\n    \n    DodajKsiazke[Dodaj książkę]\n    DodajKlienta[Dodaj klienta]\n    PokazKsiazki[Pokaż wszystkie książki]\n    PokazKlientow[Pokaż wszystkich klientów]\n    WypozyczKsiazke[Wypożycz książkę]\n    ZwrocKsiazke[Zwróć książkę]\n\n    User --&gt; DodajKsiazke\n    User --&gt; DodajKlienta\n    User --&gt; PokazKsiazki\n    User --&gt; PokazKlientow\n    User --&gt; WypozyczKsiazke\n    User --&gt; ZwrocKsiazke\n\n    DodajKsiazke -.-&gt; OpisDodajKsiazke[\&quot;Dodaje nową książkę do systemu\&quot;]\n    DodajKlienta -.-&gt; OpisDodajKlienta[\&quot;Rejestruje nowego klienta w systemie\&quot;]\n    PokazKsiazki -.-&gt; OpisPokazKsiazki[\&quot;Wyświetla listę wszystkich dostępnych książek w bibliotece\&quot;]\n    PokazKlientow -.-&gt; OpisPokazKlientow[\&quot;Wyświetla listę wszystkich zarejestrowanych klientów biblioteki\&quot;]\n    WypozyczKsiazke -.-&gt; OpisWypozyczKsiazke[\&quot;Umożliwia pracownikowi wypożyczenie książki klientowi\&quot;]\n    ZwrocKsiazke -.-&gt; OpisZwrocKsiazke[\&quot;Rejestruje zwrot wypożyczonej książki do biblioteki\&quot;]\n&quot;,&#10;  &quot;config&quot;: {&#10;    &quot;theme&quot;: &quot;dark&quot;,&#10;    &quot;arrowMarkerAbsolute&quot;: false,&#10;    &quot;flowchart&quot;: {&#10;      &quot;htmlLabels&quot;: false&#10;    },&#10;    &quot;sequence&quot;: {&#10;      &quot;diagramMarginX&quot;: 50,&#10;      &quot;diagramMarginY&quot;: 10,&#10;      &quot;actorMargin&quot;: 50,&#10;      &quot;width&quot;: 150,&#10;      &quot;height&quot;: 65,&#10;      &quot;boxMargin&quot;: 10,&#10;      &quot;boxTextMargin&quot;: 5,&#10;      &quot;noteMargin&quot;: 10,&#10;      &quot;messageMargin&quot;: 35,&#10;      &quot;mirrorActors&quot;: true,&#10;      &quot;bottomMarginAdj&quot;: 1,&#10;      &quot;useMaxWidth&quot;: true,&#10;      &quot;rightAngles&quot;: false,&#10;      &quot;showSequenceNumbers&quot;: false&#10;    },&#10;    &quot;gantt&quot;: {&#10;      &quot;titleTopMargin&quot;: 25,&#10;      &quot;barHeight&quot;: 20,&#10;      &quot;barGap&quot;: 4,&#10;      &quot;topPadding&quot;: 50,&#10;      &quot;leftPadding&quot;: 75,&#10;      &quot;gridLineStartPadding&quot;: 35,&#10;      &quot;fontSize&quot;: 11,&#10;      &quot;fontFamily&quot;: &quot;\&quot;Open-Sans\&quot;, \&quot;sans-serif\&quot;&quot;,&#10;      &quot;numberSectionStyles&quot;: 4,&#10;      &quot;axisFormat&quot;: &quot;%Y-%m-%d&quot;&#10;    },&#10;    &quot;securityLevel&quot;: &quot;strict&quot;,&#10;    &quot;startOnLoad&quot;: false,&#10;    &quot;themeVariables&quot;: {&#10;      &quot;background&quot;: &quot;#333&quot;,&#10;      &quot;primaryColor&quot;: &quot;#1f2020&quot;,&#10;      &quot;secondaryColor&quot;: &quot;hsl(180, 1.5873015873%, 28.3529411765%)&quot;,&#10;      &quot;tertiaryColor&quot;: &quot;hsl(20, 1.5873015873%, 12.3529411765%)&quot;,&#10;      &quot;primaryBorderColor&quot;: &quot;#cccccc&quot;,&#10;      &quot;secondaryBorderColor&quot;: &quot;hsl(180, 0%, 18.3529411765%)&quot;,&#10;      &quot;tertiaryBorderColor&quot;: &quot;hsl(20, 0%, 2.3529411765%)&quot;,&#10;      &quot;primaryTextColor&quot;: &quot;#e0dfdf&quot;,&#10;      &quot;secondaryTextColor&quot;: &quot;rgb(183.8476190475, 181.5523809523, 181.5523809523)&quot;,&#10;      &quot;tertiaryTextColor&quot;: &quot;rgb(222.9999999999, 223.6666666666, 223.9999999999)&quot;,&#10;      &quot;lineColor&quot;: &quot;lightgrey&quot;,&#10;      &quot;textColor&quot;: &quot;#ccc&quot;,&#10;      &quot;mainBkg&quot;: &quot;#1f2020&quot;,&#10;      &quot;secondBkg&quot;: &quot;hsl(180, 1.5873015873%, 28.3529411765%)&quot;,&#10;      &quot;mainContrastColor&quot;: &quot;lightgrey&quot;,&#10;      &quot;darkTextColor&quot;: &quot;hsl(28.5714285714, 17.3553719008%, 86.2745098039%)&quot;,&#10;      &quot;border1&quot;: &quot;#81B1DB&quot;,&#10;      &quot;border2&quot;: &quot;rgba(255, 255, 255, 0.25)&quot;,&#10;      &quot;arrowheadColor&quot;: &quot;lightgrey&quot;,&#10;      &quot;fontFamily&quot;: &quot;\&quot;trebuchet ms\&quot;, verdana, arial, sans-serif&quot;,&#10;      &quot;fontSize&quot;: &quot;16px&quot;,&#10;      &quot;labelBackground&quot;: &quot;#181818&quot;,&#10;      &quot;nodeBkg&quot;: &quot;#1f2020&quot;,&#10;      &quot;nodeBorder&quot;: &quot;#81B1DB&quot;,&#10;      &quot;clusterBkg&quot;: &quot;hsl(180, 1.5873015873%, 28.3529411765%)&quot;,&#10;      &quot;clusterBorder&quot;: &quot;rgba(255, 255, 255, 0.25)&quot;,&#10;      &quot;defaultLinkColor&quot;: &quot;lightgrey&quot;,&#10;      &quot;titleColor&quot;: &quot;#F9FFFE&quot;,&#10;      &quot;edgeLabelBackground&quot;: &quot;hsl(0, 0%, 34.4117647059%)&quot;,&#10;      &quot;actorBorder&quot;: &quot;#81B1DB&quot;,&#10;      &quot;actorBkg&quot;: &quot;#1f2020&quot;,&#10;      &quot;actorTextColor&quot;: &quot;lightgrey&quot;,&#10;      &quot;actorLineColor&quot;: &quot;lightgrey&quot;,&#10;      &quot;signalColor&quot;: &quot;lightgrey&quot;,&#10;      &quot;signalTextColor&quot;: &quot;lightgrey&quot;,&#10;      &quot;labelBoxBkgColor&quot;: &quot;#1f2020&quot;,&#10;      &quot;labelBoxBorderColor&quot;: &quot;#81B1DB&quot;,&#10;      &quot;labelTextColor&quot;: &quot;lightgrey&quot;,&#10;      &quot;loopTextColor&quot;: &quot;lightgrey&quot;,&#10;      &quot;noteBorderColor&quot;: &quot;hsl(180, 0%, 18.3529411765%)&quot;,&#10;      &quot;noteBkgColor&quot;: &quot;hsl(180, 1.5873015873%, 28.3529411765%)&quot;,&#10;      &quot;noteTextColor&quot;: &quot;rgb(183.8476190475, 181.5523809523, 181.5523809523)&quot;,&#10;      &quot;activationBorderColor&quot;: &quot;#81B1DB&quot;,&#10;      &quot;activationBkgColor&quot;: &quot;hsl(180, 1.5873015873%, 28.3529411765%)&quot;,&#10;      &quot;sequenceNumberColor&quot;: &quot;black&quot;,&#10;      &quot;sectionBkgColor&quot;: &quot;hsl(52.9411764706, 28.813559322%, 58.431372549%)&quot;,&#10;      &quot;altSectionBkgColor&quot;: &quot;#333&quot;,&#10;      &quot;sectionBkgColor2&quot;: &quot;#EAE8D9&quot;,&#10;      &quot;taskBorderColor&quot;: &quot;#ffffff&quot;,&#10;      &quot;taskBkgColor&quot;: &quot;hsl(180, 1.5873015873%, 35.3529411765%)&quot;,&#10;      &quot;taskTextColor&quot;: &quot;hsl(28.5714285714, 17.3553719008%, 86.2745098039%)&quot;,&#10;      &quot;taskTextLightColor&quot;: &quot;lightgrey&quot;,&#10;      &quot;taskTextOutsideColor&quot;: &quot;lightgrey&quot;,&#10;      &quot;taskTextClickableColor&quot;: &quot;#003163&quot;,&#10;      &quot;activeTaskBorderColor&quot;: &quot;#ffffff&quot;,&#10;      &quot;activeTaskBkgColor&quot;: &quot;#81B1DB&quot;,&#10;      &quot;gridColor&quot;: &quot;lightgrey&quot;,&#10;      &quot;doneTaskBkgColor&quot;: &quot;lightgrey&quot;,&#10;      &quot;doneTaskBorderColor&quot;: &quot;grey&quot;,&#10;      &quot;critBorderColor&quot;: &quot;#E83737&quot;,&#10;      &quot;critBkgColor&quot;: &quot;#E83737&quot;,&#10;      &quot;taskTextDarkColor&quot;: &quot;hsl(28.5714285714, 17.3553719008%, 86.2745098039%)&quot;,&#10;      &quot;todayLineColor&quot;: &quot;#DB5757&quot;,&#10;      &quot;personBorder&quot;: &quot;calculated&quot;,&#10;      &quot;personBkg&quot;: &quot;calculated&quot;,&#10;      &quot;labelColor&quot;: &quot;calculated&quot;,&#10;      &quot;errorBkgColor&quot;: &quot;#a44141&quot;,&#10;      &quot;errorTextColor&quot;: &quot;#ddd&quot;,&#10;      &quot;transitionColor&quot;: &quot;lightgrey&quot;,&#10;      &quot;transitionLabelColor&quot;: &quot;#ccc&quot;,&#10;      &quot;stateLabelColor&quot;: &quot;#e0dfdf&quot;,&#10;      &quot;stateBkg&quot;: &quot;#1f2020&quot;,&#10;      &quot;labelBackgroundColor&quot;: &quot;#1f2020&quot;,&#10;      &quot;compositeBackground&quot;: &quot;#333&quot;,&#10;      &quot;altBackground&quot;: &quot;#555&quot;,&#10;      &quot;compositeTitleBackground&quot;: &quot;#1f2020&quot;,&#10;      &quot;compositeBorder&quot;: &quot;#81B1DB&quot;,&#10;      &quot;innerEndBackground&quot;: &quot;#cccccc&quot;,&#10;      &quot;specialStateColor&quot;: &quot;#f4f4f4&quot;,&#10;      &quot;fillType0&quot;: &quot;#1f2020&quot;,&#10;      &quot;fillType1&quot;: &quot;hsl(180, 1.5873015873%, 28.3529411765%)&quot;,&#10;      &quot;fillType2&quot;: &quot;hsl(244, 1.5873015873%, 12.3529411765%)&quot;,&#10;      &quot;fillType3&quot;: &quot;hsl(244, 1.5873015873%, 28.3529411765%)&quot;,&#10;      &quot;fillType4&quot;: &quot;hsl(116, 1.5873015873%, 12.3529411765%)&quot;,&#10;      &quot;fillType5&quot;: &quot;hsl(116, 1.5873015873%, 28.3529411765%)&quot;,&#10;      &quot;fillType6&quot;: &quot;hsl(308, 1.5873015873%, 12.3529411765%)&quot;,&#10;      &quot;fillType7&quot;: &quot;hsl(308, 1.5873015873%, 28.3529411765%)&quot;,&#10;      &quot;pie1&quot;: &quot;#0b0000&quot;,&#10;      &quot;pie2&quot;: &quot;#4d1037&quot;,&#10;      &quot;pie3&quot;: &quot;#3f5258&quot;,&#10;      &quot;pie4&quot;: &quot;#4f2f1b&quot;,&#10;      &quot;pie5&quot;: &quot;#6e0a0a&quot;,&#10;      &quot;pie6&quot;: &quot;#3b0048&quot;,&#10;      &quot;pie7&quot;: &quot;#995a01&quot;,&#10;      &quot;pie8&quot;: &quot;#154706&quot;,&#10;      &quot;pie9&quot;: &quot;#161722&quot;,&#10;      &quot;pie10&quot;: &quot;#00296f&quot;,&#10;      &quot;pie11&quot;: &quot;#01629c&quot;,&#10;      &quot;pie12&quot;: &quot;#010029&quot;,&#10;      &quot;pieTitleTextSize&quot;: &quot;25px&quot;,&#10;      &quot;pieTitleTextColor&quot;: &quot;hsl(28.5714285714, 17.3553719008%, 86.2745098039%)&quot;,&#10;      &quot;pieSectionTextSize&quot;: &quot;17px&quot;,&#10;      &quot;pieSectionTextColor&quot;: &quot;#ccc&quot;,&#10;      &quot;pieLegendTextSize&quot;: &quot;17px&quot;,&#10;      &quot;pieLegendTextColor&quot;: &quot;hsl(28.5714285714, 17.3553719008%, 86.2745098039%)&quot;,&#10;      &quot;pieStrokeColor&quot;: &quot;black&quot;,&#10;      &quot;pieStrokeWidth&quot;: &quot;2px&quot;,&#10;      &quot;pieOpacity&quot;: &quot;0.7&quot;,&#10;      &quot;classText&quot;: &quot;#e0dfdf&quot;,&#10;      &quot;requirementBackground&quot;: &quot;#1f2020&quot;,&#10;      &quot;requirementBorderColor&quot;: &quot;#cccccc&quot;,&#10;      &quot;requirementBorderSize&quot;: &quot;#cccccc&quot;,&#10;      &quot;requirementTextColor&quot;: &quot;#e0dfdf&quot;,&#10;      &quot;relationColor&quot;: &quot;lightgrey&quot;,&#10;      &quot;relationLabelBackground&quot;: &quot;hsl(180, 1.5873015873%, 28.3529411765%)&quot;,&#10;      &quot;relationLabelColor&quot;: &quot;lightgrey&quot;,&#10;      &quot;git0&quot;: &quot;hsl(180, 1.5873015873%, 48.3529411765%)&quot;,&#10;      &quot;git1&quot;: &quot;hsl(321.6393442623, 65.5913978495%, 38.2352941176%)&quot;,&#10;      &quot;git2&quot;: &quot;hsl(194.4, 16.5562913907%, 49.6078431373%)&quot;,&#10;      &quot;git3&quot;: &quot;hsl(23.0769230769, 49.0566037736%, 40.7843137255%)&quot;,&#10;      &quot;git4&quot;: &quot;hsl(0, 83.3333333333%, 43.5294117647%)&quot;,&#10;      &quot;git5&quot;: &quot;hsl(289.1666666667, 100%, 24.1176470588%)&quot;,&#10;      &quot;git6&quot;: &quot;hsl(35.1315789474, 98.7012987013%, 40.1960784314%)&quot;,&#10;      &quot;git7&quot;: &quot;hsl(106.1538461538, 84.4155844156%, 35.0980392157%)&quot;,&#10;      &quot;gitInv0&quot;: &quot;rgb(133.6571428571, 129.7428571428, 129.7428571428)&quot;,&#10;      &quot;gitInv1&quot;: &quot;rgb(93.5483870969, 221.4516129033, 139.677419355)&quot;,&#10;      &quot;gitInv2&quot;: &quot;rgb(149.4437086091, 117.6092715231, 107.5562913906)&quot;,&#10;      &quot;gitInv3&quot;: &quot;rgb(99.9811320754, 162.7735849057, 202.0188679245)&quot;,&#10;      &quot;gitInv4&quot;: &quot;rgb(51.5000000001, 236.5, 236.5)&quot;,&#10;      &quot;gitInv5&quot;: &quot;rgb(154.2083333334, 255, 132.0000000001)&quot;,&#10;      &quot;gitInv6&quot;: &quot;rgb(51.331168831, 135.1948051946, 253.6688311688)&quot;,&#10;      &quot;gitInv7&quot;: &quot;rgb(206.1818181817, 89.948051948, 241.051948052)&quot;,&#10;      &quot;tagLabelColor&quot;: &quot;#e0dfdf&quot;,&#10;      &quot;tagLabelBackground&quot;: &quot;#1f2020&quot;,&#10;      &quot;tagLabelBorder&quot;: &quot;#cccccc&quot;,&#10;      &quot;tagLabelFontSize&quot;: &quot;10px&quot;,&#10;      &quot;commitLabelColor&quot;: &quot;rgb(183.8476190475, 181.5523809523, 181.5523809523)&quot;,&#10;      &quot;commitLabelBackground&quot;: &quot;hsl(180, 1.5873015873%, 28.3529411765%)&quot;,&#10;      &quot;commitLabelFontSize&quot;: &quot;10px&quot;&#10;    }&#10;  }&#10;}" id="2006Tv8J59Aeadz2sh-s-1">
                    <mxCell style="shape=image;noLabel=1;verticalAlign=top;imageAspect=1;image=data:image/svg+xml,PHN2ZyB2aWV3Qm94PSIwIDAgMjUwNS42OTIyMzAyMjQ2MDk0IDIyOS44MTk0NDY1NjM3MjA3IiBzdHlsZT0ibWF4LXdpZHRoOiAyNTA1LjY5MjIzMDIyNDYwOTRweDsiIGhlaWdodD0iMjI5LjgxOTQ0NjU2MzcyMDciIGFyaWEtbGFiZWxsZWRieT0iY2hhcnQtdGl0bGUtZ2VNZXJtYWlkT3V0cHV0LTE3MzA5MzI1MTAwNzkgY2hhcnQtZGVzYy1nZU1lcm1haWRPdXRwdXQtMTczMDkzMjUxMDA3OSIgcm9sZT0iaW1nIiB4bWxuczp4bGluaz0iaHR0cDovL3d3dy53My5vcmcvMTk5OS94bGluayIgeG1sbnM9Imh0dHA6Ly93d3cudzMub3JnLzIwMDAvc3ZnIiB3aWR0aD0iMTAwJSIgaWQ9ImdlTWVybWFpZE91dHB1dC0xNzMwOTMyNTEwMDc5Ij48dGl0bGUgaWQ9ImNoYXJ0LXRpdGxlLWdlTWVybWFpZE91dHB1dC0xNzMwOTMyNTEwMDc5Ij48L3RpdGxlPjxkZXNjIGlkPSJjaGFydC1kZXNjLWdlTWVybWFpZE91dHB1dC0xNzMwOTMyNTEwMDc5Ij48L2Rlc2M+PHN0eWxlPiNnZU1lcm1haWRPdXRwdXQtMTczMDkzMjUxMDA3OSB7Zm9udC1mYW1pbHk6InRyZWJ1Y2hldCBtcyIsdmVyZGFuYSxhcmlhbCxzYW5zLXNlcmlmO2ZvbnQtc2l6ZToxNnB4O2ZpbGw6I2NjYzt9I2dlTWVybWFpZE91dHB1dC0xNzMwOTMyNTEwMDc5IC5lcnJvci1pY29ue2ZpbGw6I2E0NDE0MTt9I2dlTWVybWFpZE91dHB1dC0xNzMwOTMyNTEwMDc5IC5lcnJvci10ZXh0e2ZpbGw6I2RkZDtzdHJva2U6I2RkZDt9I2dlTWVybWFpZE91dHB1dC0xNzMwOTMyNTEwMDc5IC5lZGdlLXRoaWNrbmVzcy1ub3JtYWx7c3Ryb2tlLXdpZHRoOjJweDt9I2dlTWVybWFpZE91dHB1dC0xNzMwOTMyNTEwMDc5IC5lZGdlLXRoaWNrbmVzcy10aGlja3tzdHJva2Utd2lkdGg6My41cHg7fSNnZU1lcm1haWRPdXRwdXQtMTczMDkzMjUxMDA3OSAuZWRnZS1wYXR0ZXJuLXNvbGlke3N0cm9rZS1kYXNoYXJyYXk6MDt9I2dlTWVybWFpZE91dHB1dC0xNzMwOTMyNTEwMDc5IC5lZGdlLXBhdHRlcm4tZGFzaGVke3N0cm9rZS1kYXNoYXJyYXk6Mzt9I2dlTWVybWFpZE91dHB1dC0xNzMwOTMyNTEwMDc5IC5lZGdlLXBhdHRlcm4tZG90dGVke3N0cm9rZS1kYXNoYXJyYXk6Mjt9I2dlTWVybWFpZE91dHB1dC0xNzMwOTMyNTEwMDc5IC5tYXJrZXJ7ZmlsbDpsaWdodGdyZXk7c3Ryb2tlOmxpZ2h0Z3JleTt9I2dlTWVybWFpZE91dHB1dC0xNzMwOTMyNTEwMDc5IC5tYXJrZXIuY3Jvc3N7c3Ryb2tlOmxpZ2h0Z3JleTt9I2dlTWVybWFpZE91dHB1dC0xNzMwOTMyNTEwMDc5IHN2Z3tmb250LWZhbWlseToidHJlYnVjaGV0IG1zIix2ZXJkYW5hLGFyaWFsLHNhbnMtc2VyaWY7Zm9udC1zaXplOjE2cHg7fSNnZU1lcm1haWRPdXRwdXQtMTczMDkzMjUxMDA3OSAubGFiZWx7Zm9udC1mYW1pbHk6InRyZWJ1Y2hldCBtcyIsdmVyZGFuYSxhcmlhbCxzYW5zLXNlcmlmO2NvbG9yOiNjY2M7fSNnZU1lcm1haWRPdXRwdXQtMTczMDkzMjUxMDA3OSAuY2x1c3Rlci1sYWJlbCB0ZXh0e2ZpbGw6I0Y5RkZGRTt9I2dlTWVybWFpZE91dHB1dC0xNzMwOTMyNTEwMDc5IC5jbHVzdGVyLWxhYmVsIHNwYW57Y29sb3I6I0Y5RkZGRTt9I2dlTWVybWFpZE91dHB1dC0xNzMwOTMyNTEwMDc5IC5sYWJlbCB0ZXh0LCNnZU1lcm1haWRPdXRwdXQtMTczMDkzMjUxMDA3OSBzcGFue2ZpbGw6I2NjYztjb2xvcjojY2NjO30jZ2VNZXJtYWlkT3V0cHV0LTE3MzA5MzI1MTAwNzkgLm5vZGUgcmVjdCwjZ2VNZXJtYWlkT3V0cHV0LTE3MzA5MzI1MTAwNzkgLm5vZGUgY2lyY2xlLCNnZU1lcm1haWRPdXRwdXQtMTczMDkzMjUxMDA3OSAubm9kZSBlbGxpcHNlLCNnZU1lcm1haWRPdXRwdXQtMTczMDkzMjUxMDA3OSAubm9kZSBwb2x5Z29uLCNnZU1lcm1haWRPdXRwdXQtMTczMDkzMjUxMDA3OSAubm9kZSBwYXRoe2ZpbGw6IzFmMjAyMDtzdHJva2U6IzgxQjFEQjtzdHJva2Utd2lkdGg6MXB4O30jZ2VNZXJtYWlkT3V0cHV0LTE3MzA5MzI1MTAwNzkgLm5vZGUgLmxhYmVse3RleHQtYWxpZ246Y2VudGVyO30jZ2VNZXJtYWlkT3V0cHV0LTE3MzA5MzI1MTAwNzkgLm5vZGUuY2xpY2thYmxle2N1cnNvcjpwb2ludGVyO30jZ2VNZXJtYWlkT3V0cHV0LTE3MzA5MzI1MTAwNzkgLmFycm93aGVhZFBhdGh7ZmlsbDpsaWdodGdyZXk7fSNnZU1lcm1haWRPdXRwdXQtMTczMDkzMjUxMDA3OSAuZWRnZVBhdGggLnBhdGh7c3Ryb2tlOmxpZ2h0Z3JleTtzdHJva2Utd2lkdGg6Mi4wcHg7fSNnZU1lcm1haWRPdXRwdXQtMTczMDkzMjUxMDA3OSAuZmxvd2NoYXJ0LWxpbmt7c3Ryb2tlOmxpZ2h0Z3JleTtmaWxsOm5vbmU7fSNnZU1lcm1haWRPdXRwdXQtMTczMDkzMjUxMDA3OSAuZWRnZUxhYmVse2JhY2tncm91bmQtY29sb3I6aHNsKDAsIDAlLCAzNC40MTE3NjQ3MDU5JSk7dGV4dC1hbGlnbjpjZW50ZXI7fSNnZU1lcm1haWRPdXRwdXQtMTczMDkzMjUxMDA3OSAuZWRnZUxhYmVsIHJlY3R7b3BhY2l0eTowLjU7YmFja2dyb3VuZC1jb2xvcjpoc2woMCwgMCUsIDM0LjQxMTc2NDcwNTklKTtmaWxsOmhzbCgwLCAwJSwgMzQuNDExNzY0NzA1OSUpO30jZ2VNZXJtYWlkT3V0cHV0LTE3MzA5MzI1MTAwNzkgLmNsdXN0ZXIgcmVjdHtmaWxsOmhzbCgxODAsIDEuNTg3MzAxNTg3MyUsIDI4LjM1Mjk0MTE3NjUlKTtzdHJva2U6cmdiYSgyNTUsIDI1NSwgMjU1LCAwLjI1KTtzdHJva2Utd2lkdGg6MXB4O30jZ2VNZXJtYWlkT3V0cHV0LTE3MzA5MzI1MTAwNzkgLmNsdXN0ZXIgdGV4dHtmaWxsOiNGOUZGRkU7fSNnZU1lcm1haWRPdXRwdXQtMTczMDkzMjUxMDA3OSAuY2x1c3RlciBzcGFue2NvbG9yOiNGOUZGRkU7fSNnZU1lcm1haWRPdXRwdXQtMTczMDkzMjUxMDA3OSBkaXYubWVybWFpZFRvb2x0aXB7cG9zaXRpb246YWJzb2x1dGU7dGV4dC1hbGlnbjpjZW50ZXI7bWF4LXdpZHRoOjIwMHB4O3BhZGRpbmc6MnB4O2ZvbnQtZmFtaWx5OiJ0cmVidWNoZXQgbXMiLHZlcmRhbmEsYXJpYWwsc2Fucy1zZXJpZjtmb250LXNpemU6MTJweDtiYWNrZ3JvdW5kOmhzbCgyMCwgMS41ODczMDE1ODczJSwgMTIuMzUyOTQxMTc2NSUpO2JvcmRlcjoxcHggc29saWQgcmdiYSgyNTUsIDI1NSwgMjU1LCAwLjI1KTtib3JkZXItcmFkaXVzOjJweDtwb2ludGVyLWV2ZW50czpub25lO3otaW5kZXg6MTAwO30jZ2VNZXJtYWlkT3V0cHV0LTE3MzA5MzI1MTAwNzkgOnJvb3R7LS1tZXJtYWlkLWZvbnQtZmFtaWx5OiJ0cmVidWNoZXQgbXMiLHZlcmRhbmEsYXJpYWwsc2Fucy1zZXJpZjt9PC9zdHlsZT48ZyB0cmFuc2Zvcm09InRyYW5zbGF0ZSgwLCAwKSI+PGcgY2xhc3M9Im91dHB1dCI+PGcgY2xhc3M9ImNsdXN0ZXJzIj48L2c+PGcgY2xhc3M9ImVkZ2VQYXRocyI+PGcgc3R5bGU9Im9wYWNpdHk6IDE7IiBpZD0iTC1Vc2VyLURvZGFqS3NpYXprZSIgY2xhc3M9ImVkZ2VQYXRoIExTLVVzZXIgTEUtRG9kYWpLc2lhemtlIj48cGF0aCBzdHlsZT0iZmlsbDpub25lIiBtYXJrZXItZW5kPSJ1cmwoI2Fycm93aGVhZDYxKSIgZD0iTTEwNDAuNTE2ODMwNDQ0MzM2LDMwLjU1MzI5NTA2MjE3MTI3M0w4ODkuODY4OTgwNDA3NzE0OCwzNy4yODQzODE4MDUzNDk0M0M3MzkuMjIxMTMwMzcxMDkzOCw0NC4wMTU0Njg1NDg1Mjc1OSw0MzcuOTI1NDMwMjk3ODUxNTYsNTcuNDc3NjQyMDM0ODgzOTIsMjg3LjI3NzU4MDI2MTIzMDQ3LDY4LjM3NTM5NTQ0NDcyODc0QzEzNi42Mjk3MzAyMjQ2MDkzOCw3OS4yNzMxNDg4NTQ1NzM1NiwxMzYuNjI5NzMwMjI0NjA5MzgsODcuNjA2NDgyMTg3OTA2OSwxMzYuNjI5NzMwMjI0NjA5MzgsOTEuNzczMTQ4ODU0NTczNTZMMTM2LjYyOTczMDIyNDYwOTM4LDk1LjkzOTgxNTUyMTI0MDIzIiBjbGFzcz0icGF0aCI+PC9wYXRoPjxkZWZzPjxtYXJrZXIgb3JpZW50PSJhdXRvIiBtYXJrZXJIZWlnaHQ9IjYiIG1hcmtlcldpZHRoPSI4IiBtYXJrZXJVbml0cz0ic3Ryb2tlV2lkdGgiIHJlZlk9IjUiIHJlZlg9IjkiIHZpZXdCb3g9IjAgMCAxMCAxMCIgaWQ9ImFycm93aGVhZDYxIj48cGF0aCBzdHlsZT0ic3Ryb2tlLXdpZHRoOiAxOyBzdHJva2UtZGFzaGFycmF5OiAxLCAwOyIgY2xhc3M9ImFycm93aGVhZFBhdGgiIGQ9Ik0gMCAwIEwgMTAgNSBMIDAgMTAgeiI+PC9wYXRoPjwvbWFya2VyPjwvZGVmcz48L2c+PGcgc3R5bGU9Im9wYWNpdHk6IDE7IiBpZD0iTC1Vc2VyLURvZGFqS2xpZW50YSIgY2xhc3M9ImVkZ2VQYXRoIExTLVVzZXIgTEUtRG9kYWpLbGllbnRhIj48cGF0aCBzdHlsZT0iZmlsbDpub25lIiBtYXJrZXItZW5kPSJ1cmwoI2Fycm93aGVhZDYyKSIgZD0iTTEwNDAuNTE2ODMwNDQ0MzM2LDMyLjI5NTM3NjAyNjgzODU4TDk0My41MjE4MDQ4MDk1NzAzLDM4LjczNjExNTk0MjU3MjE5Qzg0Ni41MjY3NzkxNzQ4MDQ3LDQ1LjE3Njg1NTg1ODMwNTgsNjUyLjUzNjcyNzkwNTI3MzQsNTguMDU4MzM1Njg5NzczMDI0LDU1NS41NDE3MDIyNzA1MDc4LDY4LjY2NTc0MjI3MjE3MzI5QzQ1OC41NDY2NzY2MzU3NDIyLDc5LjI3MzE0ODg1NDU3MzU2LDQ1OC41NDY2NzY2MzU3NDIyLDg3LjYwNjQ4MjE4NzkwNjksNDU4LjU0NjY3NjYzNTc0MjIsOTEuNzczMTQ4ODU0NTczNTZMNDU4LjU0NjY3NjYzNTc0MjIsOTUuOTM5ODE1NTIxMjQwMjMiIGNsYXNzPSJwYXRoIj48L3BhdGg+PGRlZnM+PG1hcmtlciBvcmllbnQ9ImF1dG8iIG1hcmtlckhlaWdodD0iNiIgbWFya2VyV2lkdGg9IjgiIG1hcmtlclVuaXRzPSJzdHJva2VXaWR0aCIgcmVmWT0iNSIgcmVmWD0iOSIgdmlld0JveD0iMCAwIDEwIDEwIiBpZD0iYXJyb3doZWFkNjIiPjxwYXRoIHN0eWxlPSJzdHJva2Utd2lkdGg6IDE7IHN0cm9rZS1kYXNoYXJyYXk6IDEsIDA7IiBjbGFzcz0iYXJyb3doZWFkUGF0aCIgZD0iTSAwIDAgTCAxMCA1IEwgMCAxMCB6Ij48L3BhdGg+PC9tYXJrZXI+PC9kZWZzPjwvZz48ZyBzdHlsZT0ib3BhY2l0eTogMTsiIGlkPSJMLVVzZXItUG9rYXpLc2lhemtpIiBjbGFzcz0iZWRnZVBhdGggTFMtVXNlciBMRS1Qb2thektzaWF6a2kiPjxwYXRoIHN0eWxlPSJmaWxsOm5vbmUiIG1hcmtlci1lbmQ9InVybCgjYXJyb3doZWFkNjMpIiBkPSJNMTA0MC41MTY4MzA0NDQzMzYsNDEuMDY2MzI1Nzk1NjA1ODU2TDEwMTIuMTkwMDM1NTAyMTE1OCw0Ni4wNDUyNDA3NDk4NzgyNDZDOTgzLjg2MzI0MDU1OTg5NTksNTEuMDI0MTU1NzA0MTUwNjQ0LDkyNy4yMDk2NTA2NzU0NTU3LDYwLjk4MTk4NTYxMjY5NTQ0LDg5OC44ODI4NTU3MzMyMzU3LDcwLjEyNzU2NzIzMzYzNDUxQzg3MC41NTYwNjA3OTEwMTU2LDc5LjI3MzE0ODg1NDU3MzU2LDg3MC41NTYwNjA3OTEwMTU2LDg3LjYwNjQ4MjE4NzkwNjksODcwLjU1NjA2MDc5MTAxNTYsOTEuNzczMTQ4ODU0NTczNTZMODcwLjU1NjA2MDc5MTAxNTYsOTUuOTM5ODE1NTIxMjQwMjMiIGNsYXNzPSJwYXRoIj48L3BhdGg+PGRlZnM+PG1hcmtlciBvcmllbnQ9ImF1dG8iIG1hcmtlckhlaWdodD0iNiIgbWFya2VyV2lkdGg9IjgiIG1hcmtlclVuaXRzPSJzdHJva2VXaWR0aCIgcmVmWT0iNSIgcmVmWD0iOSIgdmlld0JveD0iMCAwIDEwIDEwIiBpZD0iYXJyb3doZWFkNjMiPjxwYXRoIHN0eWxlPSJzdHJva2Utd2lkdGg6IDE7IHN0cm9rZS1kYXNoYXJyYXk6IDEsIDA7IiBjbGFzcz0iYXJyb3doZWFkUGF0aCIgZD0iTSAwIDAgTCAxMCA1IEwgMCAxMCB6Ij48L3BhdGg+PC9tYXJrZXI+PC9kZWZzPjwvZz48ZyBzdHlsZT0ib3BhY2l0eTogMTsiIGlkPSJMLVVzZXItUG9rYXpLbGllbnRvdyIgY2xhc3M9ImVkZ2VQYXRoIExTLVVzZXIgTEUtUG9rYXpLbGllbnRvdyI+PHBhdGggc3R5bGU9ImZpbGw6bm9uZSIgbWFya2VyLWVuZD0idXJsKCNhcnJvd2hlYWQ2NCkiIGQ9Ik0xMjAwLjkxNTc3MTQ4NDM3NSw0MS4wNjYzMjU3OTU2MDU4NTZMMTIyOS4yNDI1NjY0MjY1OTUsNDYuMDQ1MjQwNzQ5ODc4MjQ2QzEyNTcuNTY5MzYxMzY4ODE1Miw1MS4wMjQxNTU3MDQxNTA2NDQsMTMxNC4yMjI5NTEyNTMyNTUxLDYwLjk4MTk4NTYxMjY5NTQ0LDEzNDIuNTQ5NzQ2MTk1NDc1Myw3MC4xMjc1NjcyMzM2MzQ1MUMxMzcwLjg3NjU0MTEzNzY5NTMsNzkuMjczMTQ4ODU0NTczNTYsMTM3MC44NzY1NDExMzc2OTUzLDg3LjYwNjQ4MjE4NzkwNjksMTM3MC44NzY1NDExMzc2OTUzLDkxLjc3MzE0ODg1NDU3MzU2TDEzNzAuODc2NTQxMTM3Njk1Myw5NS45Mzk4MTU1MjEyNDAyMyIgY2xhc3M9InBhdGgiPjwvcGF0aD48ZGVmcz48bWFya2VyIG9yaWVudD0iYXV0byIgbWFya2VySGVpZ2h0PSI2IiBtYXJrZXJXaWR0aD0iOCIgbWFya2VyVW5pdHM9InN0cm9rZVdpZHRoIiByZWZZPSI1IiByZWZYPSI5IiB2aWV3Qm94PSIwIDAgMTAgMTAiIGlkPSJhcnJvd2hlYWQ2NCI+PHBhdGggc3R5bGU9InN0cm9rZS13aWR0aDogMTsgc3Ryb2tlLWRhc2hhcnJheTogMSwgMDsiIGNsYXNzPSJhcnJvd2hlYWRQYXRoIiBkPSJNIDAgMCBMIDEwIDUgTCAwIDEwIHoiPjwvcGF0aD48L21hcmtlcj48L2RlZnM+PC9nPjxnIHN0eWxlPSJvcGFjaXR5OiAxOyIgaWQ9IkwtVXNlci1XeXBvenljektzaWF6a2UiIGNsYXNzPSJlZGdlUGF0aCBMUy1Vc2VyIExFLVd5cG96eWN6S3NpYXprZSI+PHBhdGggc3R5bGU9ImZpbGw6bm9uZSIgbWFya2VyLWVuZD0idXJsKCNhcnJvd2hlYWQ2NSkiIGQ9Ik0xMjAwLjkxNTc3MTQ4NDM3NSwzMS43Mzg4NzE3OTI2MDEzODdMMTMxMC43ODkyMTI1NDQ3NTksMzguMjcyMzYyNDE0MDQxMkMxNDIwLjY2MjY1MzYwNTE0MzMsNDQuODA1ODUzMDM1NDgxLDE2NDAuNDA5NTM1NzI1OTExNCw1Ny44NzI4MzQyNzgzNjA2MiwxNzUwLjI4Mjk3Njc4NjI5NTYsNjguNTcyOTkxNTY2NDY3MUMxODYwLjE1NjQxNzg0NjY3OTcsNzkuMjczMTQ4ODU0NTczNTYsMTg2MC4xNTY0MTc4NDY2Nzk3LDg3LjYwNjQ4MjE4NzkwNjksMTg2MC4xNTY0MTc4NDY2Nzk3LDkxLjc3MzE0ODg1NDU3MzU2TDE4NjAuMTU2NDE3ODQ2Njc5Nyw5NS45Mzk4MTU1MjEyNDAyMyIgY2xhc3M9InBhdGgiPjwvcGF0aD48ZGVmcz48bWFya2VyIG9yaWVudD0iYXV0byIgbWFya2VySGVpZ2h0PSI2IiBtYXJrZXJXaWR0aD0iOCIgbWFya2VyVW5pdHM9InN0cm9rZVdpZHRoIiByZWZZPSI1IiByZWZYPSI5IiB2aWV3Qm94PSIwIDAgMTAgMTAiIGlkPSJhcnJvd2hlYWQ2NSI+PHBhdGggc3R5bGU9InN0cm9rZS13aWR0aDogMTsgc3Ryb2tlLWRhc2hhcnJheTogMSwgMDsiIGNsYXNzPSJhcnJvd2hlYWRQYXRoIiBkPSJNIDAgMCBMIDEwIDUgTCAwIDEwIHoiPjwvcGF0aD48L21hcmtlcj48L2RlZnM+PC9nPjxnIHN0eWxlPSJvcGFjaXR5OiAxOyIgaWQ9IkwtVXNlci1ad3JvY0tzaWF6a2UiIGNsYXNzPSJlZGdlUGF0aCBMUy1Vc2VyIExFLVp3cm9jS3NpYXprZSI+PHBhdGggc3R5bGU9ImZpbGw6bm9uZSIgbWFya2VyLWVuZD0idXJsKCNhcnJvd2hlYWQ2NikiIGQ9Ik0xMjAwLjkxNTc3MTQ4NDM3NSwyOS45NDA2MDU2MDAyMTkzMjVMMTM4NS4zOTA2NjA2MDM4NDEsMzYuNzczODA3MjUzNzIyODFDMTU2OS44NjU1NDk3MjMzMDc0LDQzLjYwNzAwODkwNzIyNjI5NSwxOTM4LjgxNTMyNzk2MjIzOTUsNTcuMjczNDEyMjE0MjMzMjcsMjEyMy4yOTAyMTcwODE3MDU2LDY4LjI3MzI4MDUzNDQwMzQxQzIzMDcuNzY1MTA2MjAxMTcyLDc5LjI3MzE0ODg1NDU3MzU2LDIzMDcuNzY1MTA2MjAxMTcyLDg3LjYwNjQ4MjE4NzkwNjksMjMwNy43NjUxMDYyMDExNzIsOTEuNzczMTQ4ODU0NTczNTZMMjMwNy43NjUxMDYyMDExNzIsOTUuOTM5ODE1NTIxMjQwMjMiIGNsYXNzPSJwYXRoIj48L3BhdGg+PGRlZnM+PG1hcmtlciBvcmllbnQ9ImF1dG8iIG1hcmtlckhlaWdodD0iNiIgbWFya2VyV2lkdGg9IjgiIG1hcmtlclVuaXRzPSJzdHJva2VXaWR0aCIgcmVmWT0iNSIgcmVmWD0iOSIgdmlld0JveD0iMCAwIDEwIDEwIiBpZD0iYXJyb3doZWFkNjYiPjxwYXRoIHN0eWxlPSJzdHJva2Utd2lkdGg6IDE7IHN0cm9rZS1kYXNoYXJyYXk6IDEsIDA7IiBjbGFzcz0iYXJyb3doZWFkUGF0aCIgZD0iTSAwIDAgTCAxMCA1IEwgMCAxMCB6Ij48L3BhdGg+PC9tYXJrZXI+PC9kZWZzPjwvZz48ZyBzdHlsZT0ib3BhY2l0eTogMTsiIGlkPSJMLURvZGFqS3NpYXprZS1PcGlzRG9kYWpLc2lhemtlIiBjbGFzcz0iZWRnZVBhdGggTFMtRG9kYWpLc2lhemtlIExFLU9waXNEb2RhaktzaWF6a2UiPjxwYXRoIHN0eWxlPSJmaWxsOm5vbmU7c3Ryb2tlLXdpZHRoOjJweDtzdHJva2UtZGFzaGFycmF5OjM7IiBtYXJrZXItZW5kPSJ1cmwoI2Fycm93aGVhZDY3KSIgZD0iTTEzNi42Mjk3MzAyMjQ2MDkzOCwxMzMuODc5NjMxMDQyNDgwNDdMMTM2LjYyOTczMDIyNDYwOTM4LDEzOC4wNDYyOTc3MDkxNDcxM0MxMzYuNjI5NzMwMjI0NjA5MzgsMTQyLjIxMjk2NDM3NTgxMzgsMTM2LjYyOTczMDIyNDYwOTM4LDE1MC41NDYyOTc3MDkxNDcxMywxMzYuNjI5NzMwMjI0NjA5MzgsMTU4Ljg3OTYzMTA0MjQ4MDQ3QzEzNi42Mjk3MzAyMjQ2MDkzOCwxNjcuMjEyOTY0Mzc1ODEzOCwxMzYuNjI5NzMwMjI0NjA5MzgsMTc1LjU0NjI5NzcwOTE0NzEzLDEzNi42Mjk3MzAyMjQ2MDkzOCwxNzkuNzEyOTY0Mzc1ODEzOEwxMzYuNjI5NzMwMjI0NjA5MzgsMTgzLjg3OTYzMTA0MjQ4MDQ3IiBjbGFzcz0icGF0aCI+PC9wYXRoPjxkZWZzPjxtYXJrZXIgb3JpZW50PSJhdXRvIiBtYXJrZXJIZWlnaHQ9IjYiIG1hcmtlcldpZHRoPSI4IiBtYXJrZXJVbml0cz0ic3Ryb2tlV2lkdGgiIHJlZlk9IjUiIHJlZlg9IjkiIHZpZXdCb3g9IjAgMCAxMCAxMCIgaWQ9ImFycm93aGVhZDY3Ij48cGF0aCBzdHlsZT0ic3Ryb2tlLXdpZHRoOiAxOyBzdHJva2UtZGFzaGFycmF5OiAxLCAwOyIgY2xhc3M9ImFycm93aGVhZFBhdGgiIGQ9Ik0gMCAwIEwgMTAgNSBMIDAgMTAgeiI+PC9wYXRoPjwvbWFya2VyPjwvZGVmcz48L2c+PGcgc3R5bGU9Im9wYWNpdHk6IDE7IiBpZD0iTC1Eb2RhaktsaWVudGEtT3Bpc0RvZGFqS2xpZW50YSIgY2xhc3M9ImVkZ2VQYXRoIExTLURvZGFqS2xpZW50YSBMRS1PcGlzRG9kYWpLbGllbnRhIj48cGF0aCBzdHlsZT0iZmlsbDpub25lO3N0cm9rZS13aWR0aDoycHg7c3Ryb2tlLWRhc2hhcnJheTozOyIgbWFya2VyLWVuZD0idXJsKCNhcnJvd2hlYWQ2OCkiIGQ9Ik00NTguNTQ2Njc2NjM1NzQyMiwxMzMuODc5NjMxMDQyNDgwNDdMNDU4LjU0NjY3NjYzNTc0MjIsMTM4LjA0NjI5NzcwOTE0NzEzQzQ1OC41NDY2NzY2MzU3NDIyLDE0Mi4yMTI5NjQzNzU4MTM4LDQ1OC41NDY2NzY2MzU3NDIyLDE1MC41NDYyOTc3MDkxNDcxMyw0NTguNTQ2Njc2NjM1NzQyMiwxNTguODc5NjMxMDQyNDgwNDdDNDU4LjU0NjY3NjYzNTc0MjIsMTY3LjIxMjk2NDM3NTgxMzgsNDU4LjU0NjY3NjYzNTc0MjIsMTc1LjU0NjI5NzcwOTE0NzEzLDQ1OC41NDY2NzY2MzU3NDIyLDE3OS43MTI5NjQzNzU4MTM4TDQ1OC41NDY2NzY2MzU3NDIyLDE4My44Nzk2MzEwNDI0ODA0NyIgY2xhc3M9InBhdGgiPjwvcGF0aD48ZGVmcz48bWFya2VyIG9yaWVudD0iYXV0byIgbWFya2VySGVpZ2h0PSI2IiBtYXJrZXJXaWR0aD0iOCIgbWFya2VyVW5pdHM9InN0cm9rZVdpZHRoIiByZWZZPSI1IiByZWZYPSI5IiB2aWV3Qm94PSIwIDAgMTAgMTAiIGlkPSJhcnJvd2hlYWQ2OCI+PHBhdGggc3R5bGU9InN0cm9rZS13aWR0aDogMTsgc3Ryb2tlLWRhc2hhcnJheTogMSwgMDsiIGNsYXNzPSJhcnJvd2hlYWRQYXRoIiBkPSJNIDAgMCBMIDEwIDUgTCAwIDEwIHoiPjwvcGF0aD48L21hcmtlcj48L2RlZnM+PC9nPjxnIHN0eWxlPSJvcGFjaXR5OiAxOyIgaWQ9IkwtUG9rYXpLc2lhemtpLU9waXNQb2thektzaWF6a2kiIGNsYXNzPSJlZGdlUGF0aCBMUy1Qb2thektzaWF6a2kgTEUtT3Bpc1Bva2F6S3NpYXpraSI+PHBhdGggc3R5bGU9ImZpbGw6bm9uZTtzdHJva2Utd2lkdGg6MnB4O3N0cm9rZS1kYXNoYXJyYXk6MzsiIG1hcmtlci1lbmQ9InVybCgjYXJyb3doZWFkNjkpIiBkPSJNODcwLjU1NjA2MDc5MTAxNTYsMTMzLjg3OTYzMTA0MjQ4MDQ3TDg3MC41NTYwNjA3OTEwMTU2LDEzOC4wNDYyOTc3MDkxNDcxM0M4NzAuNTU2MDYwNzkxMDE1NiwxNDIuMjEyOTY0Mzc1ODEzOCw4NzAuNTU2MDYwNzkxMDE1NiwxNTAuNTQ2Mjk3NzA5MTQ3MTMsODcwLjU1NjA2MDc5MTAxNTYsMTU4Ljg3OTYzMTA0MjQ4MDQ3Qzg3MC41NTYwNjA3OTEwMTU2LDE2Ny4yMTI5NjQzNzU4MTM4LDg3MC41NTYwNjA3OTEwMTU2LDE3NS41NDYyOTc3MDkxNDcxMyw4NzAuNTU2MDYwNzkxMDE1NiwxNzkuNzEyOTY0Mzc1ODEzOEw4NzAuNTU2MDYwNzkxMDE1NiwxODMuODc5NjMxMDQyNDgwNDciIGNsYXNzPSJwYXRoIj48L3BhdGg+PGRlZnM+PG1hcmtlciBvcmllbnQ9ImF1dG8iIG1hcmtlckhlaWdodD0iNiIgbWFya2VyV2lkdGg9IjgiIG1hcmtlclVuaXRzPSJzdHJva2VXaWR0aCIgcmVmWT0iNSIgcmVmWD0iOSIgdmlld0JveD0iMCAwIDEwIDEwIiBpZD0iYXJyb3doZWFkNjkiPjxwYXRoIHN0eWxlPSJzdHJva2Utd2lkdGg6IDE7IHN0cm9rZS1kYXNoYXJyYXk6IDEsIDA7IiBjbGFzcz0iYXJyb3doZWFkUGF0aCIgZD0iTSAwIDAgTCAxMCA1IEwgMCAxMCB6Ij48L3BhdGg+PC9tYXJrZXI+PC9kZWZzPjwvZz48ZyBzdHlsZT0ib3BhY2l0eTogMTsiIGlkPSJMLVBva2F6S2xpZW50b3ctT3Bpc1Bva2F6S2xpZW50b3ciIGNsYXNzPSJlZGdlUGF0aCBMUy1Qb2thektsaWVudG93IExFLU9waXNQb2thektsaWVudG93Ij48cGF0aCBzdHlsZT0iZmlsbDpub25lO3N0cm9rZS13aWR0aDoycHg7c3Ryb2tlLWRhc2hhcnJheTozOyIgbWFya2VyLWVuZD0idXJsKCNhcnJvd2hlYWQ3MCkiIGQ9Ik0xMzcwLjg3NjU0MTEzNzY5NTMsMTMzLjg3OTYzMTA0MjQ4MDQ3TDEzNzAuODc2NTQxMTM3Njk1MywxMzguMDQ2Mjk3NzA5MTQ3MTNDMTM3MC44NzY1NDExMzc2OTUzLDE0Mi4yMTI5NjQzNzU4MTM4LDEzNzAuODc2NTQxMTM3Njk1MywxNTAuNTQ2Mjk3NzA5MTQ3MTMsMTM3MC44NzY1NDExMzc2OTUzLDE1OC44Nzk2MzEwNDI0ODA0N0MxMzcwLjg3NjU0MTEzNzY5NTMsMTY3LjIxMjk2NDM3NTgxMzgsMTM3MC44NzY1NDExMzc2OTUzLDE3NS41NDYyOTc3MDkxNDcxMywxMzcwLjg3NjU0MTEzNzY5NTMsMTc5LjcxMjk2NDM3NTgxMzhMMTM3MC44NzY1NDExMzc2OTUzLDE4My44Nzk2MzEwNDI0ODA0NyIgY2xhc3M9InBhdGgiPjwvcGF0aD48ZGVmcz48bWFya2VyIG9yaWVudD0iYXV0byIgbWFya2VySGVpZ2h0PSI2IiBtYXJrZXJXaWR0aD0iOCIgbWFya2VyVW5pdHM9InN0cm9rZVdpZHRoIiByZWZZPSI1IiByZWZYPSI5IiB2aWV3Qm94PSIwIDAgMTAgMTAiIGlkPSJhcnJvd2hlYWQ3MCI+PHBhdGggc3R5bGU9InN0cm9rZS13aWR0aDogMTsgc3Ryb2tlLWRhc2hhcnJheTogMSwgMDsiIGNsYXNzPSJhcnJvd2hlYWRQYXRoIiBkPSJNIDAgMCBMIDEwIDUgTCAwIDEwIHoiPjwvcGF0aD48L21hcmtlcj48L2RlZnM+PC9nPjxnIHN0eWxlPSJvcGFjaXR5OiAxOyIgaWQ9IkwtV3lwb3p5Y3pLc2lhemtlLU9waXNXeXBvenljektzaWF6a2UiIGNsYXNzPSJlZGdlUGF0aCBMUy1XeXBvenljektzaWF6a2UgTEUtT3Bpc1d5cG96eWN6S3NpYXprZSI+PHBhdGggc3R5bGU9ImZpbGw6bm9uZTtzdHJva2Utd2lkdGg6MnB4O3N0cm9rZS1kYXNoYXJyYXk6MzsiIG1hcmtlci1lbmQ9InVybCgjYXJyb3doZWFkNzEpIiBkPSJNMTg2MC4xNTY0MTc4NDY2Nzk3LDEzMy44Nzk2MzEwNDI0ODA0N0wxODYwLjE1NjQxNzg0NjY3OTcsMTM4LjA0NjI5NzcwOTE0NzEzQzE4NjAuMTU2NDE3ODQ2Njc5NywxNDIuMjEyOTY0Mzc1ODEzOCwxODYwLjE1NjQxNzg0NjY3OTcsMTUwLjU0NjI5NzcwOTE0NzEzLDE4NjAuMTU2NDE3ODQ2Njc5NywxNTguODc5NjMxMDQyNDgwNDdDMTg2MC4xNTY0MTc4NDY2Nzk3LDE2Ny4yMTI5NjQzNzU4MTM4LDE4NjAuMTU2NDE3ODQ2Njc5NywxNzUuNTQ2Mjk3NzA5MTQ3MTMsMTg2MC4xNTY0MTc4NDY2Nzk3LDE3OS43MTI5NjQzNzU4MTM4TDE4NjAuMTU2NDE3ODQ2Njc5NywxODMuODc5NjMxMDQyNDgwNDciIGNsYXNzPSJwYXRoIj48L3BhdGg+PGRlZnM+PG1hcmtlciBvcmllbnQ9ImF1dG8iIG1hcmtlckhlaWdodD0iNiIgbWFya2VyV2lkdGg9IjgiIG1hcmtlclVuaXRzPSJzdHJva2VXaWR0aCIgcmVmWT0iNSIgcmVmWD0iOSIgdmlld0JveD0iMCAwIDEwIDEwIiBpZD0iYXJyb3doZWFkNzEiPjxwYXRoIHN0eWxlPSJzdHJva2Utd2lkdGg6IDE7IHN0cm9rZS1kYXNoYXJyYXk6IDEsIDA7IiBjbGFzcz0iYXJyb3doZWFkUGF0aCIgZD0iTSAwIDAgTCAxMCA1IEwgMCAxMCB6Ij48L3BhdGg+PC9tYXJrZXI+PC9kZWZzPjwvZz48ZyBzdHlsZT0ib3BhY2l0eTogMTsiIGlkPSJMLVp3cm9jS3NpYXprZS1PcGlzWndyb2NLc2lhemtlIiBjbGFzcz0iZWRnZVBhdGggTFMtWndyb2NLc2lhemtlIExFLU9waXNad3JvY0tzaWF6a2UiPjxwYXRoIHN0eWxlPSJmaWxsOm5vbmU7c3Ryb2tlLXdpZHRoOjJweDtzdHJva2UtZGFzaGFycmF5OjM7IiBtYXJrZXItZW5kPSJ1cmwoI2Fycm93aGVhZDcyKSIgZD0iTTIzMDcuNzY1MTA2MjAxMTcyLDEzMy44Nzk2MzEwNDI0ODA0N0wyMzA3Ljc2NTEwNjIwMTE3MiwxMzguMDQ2Mjk3NzA5MTQ3MTNDMjMwNy43NjUxMDYyMDExNzIsMTQyLjIxMjk2NDM3NTgxMzgsMjMwNy43NjUxMDYyMDExNzIsMTUwLjU0NjI5NzcwOTE0NzEzLDIzMDcuNzY1MTA2MjAxMTcyLDE1OC44Nzk2MzEwNDI0ODA0N0MyMzA3Ljc2NTEwNjIwMTE3MiwxNjcuMjEyOTY0Mzc1ODEzOCwyMzA3Ljc2NTEwNjIwMTE3MiwxNzUuNTQ2Mjk3NzA5MTQ3MTMsMjMwNy43NjUxMDYyMDExNzIsMTc5LjcxMjk2NDM3NTgxMzhMMjMwNy43NjUxMDYyMDExNzIsMTgzLjg3OTYzMTA0MjQ4MDQ3IiBjbGFzcz0icGF0aCI+PC9wYXRoPjxkZWZzPjxtYXJrZXIgb3JpZW50PSJhdXRvIiBtYXJrZXJIZWlnaHQ9IjYiIG1hcmtlcldpZHRoPSI4IiBtYXJrZXJVbml0cz0ic3Ryb2tlV2lkdGgiIHJlZlk9IjUiIHJlZlg9IjkiIHZpZXdCb3g9IjAgMCAxMCAxMCIgaWQ9ImFycm93aGVhZDcyIj48cGF0aCBzdHlsZT0ic3Ryb2tlLXdpZHRoOiAxOyBzdHJva2UtZGFzaGFycmF5OiAxLCAwOyIgY2xhc3M9ImFycm93aGVhZFBhdGgiIGQ9Ik0gMCAwIEwgMTAgNSBMIDAgMTAgeiI+PC9wYXRoPjwvbWFya2VyPjwvZGVmcz48L2c+PC9nPjxnIGNsYXNzPSJlZGdlTGFiZWxzIj48ZyBzdHlsZT0ib3BhY2l0eTogMTsiIHRyYW5zZm9ybT0iIiBjbGFzcz0iZWRnZUxhYmVsIj48ZyBjbGFzcz0ibGFiZWwiIHRyYW5zZm9ybT0idHJhbnNsYXRlKDAsMCkiPjxyZWN0IGhlaWdodD0iMCIgd2lkdGg9IjAiIHJ5PSIwIiByeD0iMCI+PC9yZWN0Pjx0ZXh0Pjx0c3BhbiB4PSIxIiBkeT0iMWVtIiB4bWw6c3BhY2U9InByZXNlcnZlIj48L3RzcGFuPjwvdGV4dD48L2c+PC9nPjxnIHN0eWxlPSJvcGFjaXR5OiAxOyIgdHJhbnNmb3JtPSIiIGNsYXNzPSJlZGdlTGFiZWwiPjxnIGNsYXNzPSJsYWJlbCIgdHJhbnNmb3JtPSJ0cmFuc2xhdGUoMCwwKSI+PHJlY3QgaGVpZ2h0PSIwIiB3aWR0aD0iMCIgcnk9IjAiIHJ4PSIwIj48L3JlY3Q+PHRleHQ+PHRzcGFuIHg9IjEiIGR5PSIxZW0iIHhtbDpzcGFjZT0icHJlc2VydmUiPjwvdHNwYW4+PC90ZXh0PjwvZz48L2c+PGcgc3R5bGU9Im9wYWNpdHk6IDE7IiB0cmFuc2Zvcm09IiIgY2xhc3M9ImVkZ2VMYWJlbCI+PGcgY2xhc3M9ImxhYmVsIiB0cmFuc2Zvcm09InRyYW5zbGF0ZSgwLDApIj48cmVjdCBoZWlnaHQ9IjAiIHdpZHRoPSIwIiByeT0iMCIgcng9IjAiPjwvcmVjdD48dGV4dD48dHNwYW4geD0iMSIgZHk9IjFlbSIgeG1sOnNwYWNlPSJwcmVzZXJ2ZSI+PC90c3Bhbj48L3RleHQ+PC9nPjwvZz48ZyBzdHlsZT0ib3BhY2l0eTogMTsiIHRyYW5zZm9ybT0iIiBjbGFzcz0iZWRnZUxhYmVsIj48ZyBjbGFzcz0ibGFiZWwiIHRyYW5zZm9ybT0idHJhbnNsYXRlKDAsMCkiPjxyZWN0IGhlaWdodD0iMCIgd2lkdGg9IjAiIHJ5PSIwIiByeD0iMCI+PC9yZWN0Pjx0ZXh0Pjx0c3BhbiB4PSIxIiBkeT0iMWVtIiB4bWw6c3BhY2U9InByZXNlcnZlIj48L3RzcGFuPjwvdGV4dD48L2c+PC9nPjxnIHN0eWxlPSJvcGFjaXR5OiAxOyIgdHJhbnNmb3JtPSIiIGNsYXNzPSJlZGdlTGFiZWwiPjxnIGNsYXNzPSJsYWJlbCIgdHJhbnNmb3JtPSJ0cmFuc2xhdGUoMCwwKSI+PHJlY3QgaGVpZ2h0PSIwIiB3aWR0aD0iMCIgcnk9IjAiIHJ4PSIwIj48L3JlY3Q+PHRleHQ+PHRzcGFuIHg9IjEiIGR5PSIxZW0iIHhtbDpzcGFjZT0icHJlc2VydmUiPjwvdHNwYW4+PC90ZXh0PjwvZz48L2c+PGcgc3R5bGU9Im9wYWNpdHk6IDE7IiB0cmFuc2Zvcm09IiIgY2xhc3M9ImVkZ2VMYWJlbCI+PGcgY2xhc3M9ImxhYmVsIiB0cmFuc2Zvcm09InRyYW5zbGF0ZSgwLDApIj48cmVjdCBoZWlnaHQ9IjAiIHdpZHRoPSIwIiByeT0iMCIgcng9IjAiPjwvcmVjdD48dGV4dD48dHNwYW4geD0iMSIgZHk9IjFlbSIgeG1sOnNwYWNlPSJwcmVzZXJ2ZSI+PC90c3Bhbj48L3RleHQ+PC9nPjwvZz48ZyBzdHlsZT0ib3BhY2l0eTogMTsiIHRyYW5zZm9ybT0iIiBjbGFzcz0iZWRnZUxhYmVsIj48ZyBjbGFzcz0ibGFiZWwiIHRyYW5zZm9ybT0idHJhbnNsYXRlKDAsMCkiPjxyZWN0IGhlaWdodD0iMCIgd2lkdGg9IjAiIHJ5PSIwIiByeD0iMCI+PC9yZWN0Pjx0ZXh0Pjx0c3BhbiB4PSIxIiBkeT0iMWVtIiB4bWw6c3BhY2U9InByZXNlcnZlIj48L3RzcGFuPjwvdGV4dD48L2c+PC9nPjxnIHN0eWxlPSJvcGFjaXR5OiAxOyIgdHJhbnNmb3JtPSIiIGNsYXNzPSJlZGdlTGFiZWwiPjxnIGNsYXNzPSJsYWJlbCIgdHJhbnNmb3JtPSJ0cmFuc2xhdGUoMCwwKSI+PHJlY3QgaGVpZ2h0PSIwIiB3aWR0aD0iMCIgcnk9IjAiIHJ4PSIwIj48L3JlY3Q+PHRleHQ+PHRzcGFuIHg9IjEiIGR5PSIxZW0iIHhtbDpzcGFjZT0icHJlc2VydmUiPjwvdHNwYW4+PC90ZXh0PjwvZz48L2c+PGcgc3R5bGU9Im9wYWNpdHk6IDE7IiB0cmFuc2Zvcm09IiIgY2xhc3M9ImVkZ2VMYWJlbCI+PGcgY2xhc3M9ImxhYmVsIiB0cmFuc2Zvcm09InRyYW5zbGF0ZSgwLDApIj48cmVjdCBoZWlnaHQ9IjAiIHdpZHRoPSIwIiByeT0iMCIgcng9IjAiPjwvcmVjdD48dGV4dD48dHNwYW4geD0iMSIgZHk9IjFlbSIgeG1sOnNwYWNlPSJwcmVzZXJ2ZSI+PC90c3Bhbj48L3RleHQ+PC9nPjwvZz48ZyBzdHlsZT0ib3BhY2l0eTogMTsiIHRyYW5zZm9ybT0iIiBjbGFzcz0iZWRnZUxhYmVsIj48ZyBjbGFzcz0ibGFiZWwiIHRyYW5zZm9ybT0idHJhbnNsYXRlKDAsMCkiPjxyZWN0IGhlaWdodD0iMCIgd2lkdGg9IjAiIHJ5PSIwIiByeD0iMCI+PC9yZWN0Pjx0ZXh0Pjx0c3BhbiB4PSIxIiBkeT0iMWVtIiB4bWw6c3BhY2U9InByZXNlcnZlIj48L3RzcGFuPjwvdGV4dD48L2c+PC9nPjxnIHN0eWxlPSJvcGFjaXR5OiAxOyIgdHJhbnNmb3JtPSIiIGNsYXNzPSJlZGdlTGFiZWwiPjxnIGNsYXNzPSJsYWJlbCIgdHJhbnNmb3JtPSJ0cmFuc2xhdGUoMCwwKSI+PHJlY3QgaGVpZ2h0PSIwIiB3aWR0aD0iMCIgcnk9IjAiIHJ4PSIwIj48L3JlY3Q+PHRleHQ+PHRzcGFuIHg9IjEiIGR5PSIxZW0iIHhtbDpzcGFjZT0icHJlc2VydmUiPjwvdHNwYW4+PC90ZXh0PjwvZz48L2c+PGcgc3R5bGU9Im9wYWNpdHk6IDE7IiB0cmFuc2Zvcm09IiIgY2xhc3M9ImVkZ2VMYWJlbCI+PGcgY2xhc3M9ImxhYmVsIiB0cmFuc2Zvcm09InRyYW5zbGF0ZSgwLDApIj48cmVjdCBoZWlnaHQ9IjAiIHdpZHRoPSIwIiByeT0iMCIgcng9IjAiPjwvcmVjdD48dGV4dD48dHNwYW4geD0iMSIgZHk9IjFlbSIgeG1sOnNwYWNlPSJwcmVzZXJ2ZSI+PC90c3Bhbj48L3RleHQ+PC9nPjwvZz48L2c+PGcgY2xhc3M9Im5vZGVzIj48ZyBzdHlsZT0ib3BhY2l0eTogMTsiIHRyYW5zZm9ybT0idHJhbnNsYXRlKDExMjAuNzE2MzAwOTY0MzU1NSwyNi45Njk5MDc3NjA2MjAxMTcpIiBpZD0iZmxvd2NoYXJ0LVVzZXItMTg1IiBjbGFzcz0ibm9kZSBkZWZhdWx0Ij48cmVjdCBjbGFzcz0ibGFiZWwtY29udGFpbmVyIiBoZWlnaHQ9IjM3LjkzOTgxNTUyMTI0MDIzNCIgd2lkdGg9IjE2MC4zOTg5NDEwNDAwMzkwNiIgeT0iLTE4Ljk2OTkwNzc2MDYyMDExNyIgeD0iLTgwLjE5OTQ3MDUyMDAxOTUzIiByeT0iMCIgcng9IjAiPjwvcmVjdD48ZyB0cmFuc2Zvcm09InRyYW5zbGF0ZSgwLDApIiBjbGFzcz0ibGFiZWwiPjxnIHRyYW5zZm9ybT0idHJhbnNsYXRlKC03MC4xOTk0NzA1MjAwMTk1MywtOC45Njk5MDc3NjA2MjAxMTcpIj48dGV4dCBzdHlsZT0iIj48dHNwYW4geD0iMSIgZHk9IjFlbSIgeG1sOnNwYWNlPSJwcmVzZXJ2ZSI+UHJhY293bmlrIGJpYmxpb3Rla2k8L3RzcGFuPjwvdGV4dD48L2c+PC9nPjwvZz48ZyBzdHlsZT0ib3BhY2l0eTogMTsiIHRyYW5zZm9ybT0idHJhbnNsYXRlKDEzNi42Mjk3MzAyMjQ2MDkzOCwxMTQuOTA5NzIzMjgxODYwMzUpIiBpZD0iZmxvd2NoYXJ0LURvZGFqS3NpYXprZS0xODYiIGNsYXNzPSJub2RlIGRlZmF1bHQiPjxyZWN0IGNsYXNzPSJsYWJlbC1jb250YWluZXIiIGhlaWdodD0iMzcuOTM5ODE1NTIxMjQwMjM0IiB3aWR0aD0iMTE5LjUxODk1MTQxNjAxNTYyIiB5PSItMTguOTY5OTA3NzYwNjIwMTE3IiB4PSItNTkuNzU5NDc1NzA4MDA3ODEiIHJ5PSIwIiByeD0iMCI+PC9yZWN0PjxnIHRyYW5zZm9ybT0idHJhbnNsYXRlKDAsMCkiIGNsYXNzPSJsYWJlbCI+PGcgdHJhbnNmb3JtPSJ0cmFuc2xhdGUoLTQ5Ljc1OTQ3NTcwODAwNzgxLC04Ljk2OTkwNzc2MDYyMDExNykiPjx0ZXh0IHN0eWxlPSIiPjx0c3BhbiB4PSIxIiBkeT0iMWVtIiB4bWw6c3BhY2U9InByZXNlcnZlIj5Eb2RhaiBrc2nEhcW8a8SZPC90c3Bhbj48L3RleHQ+PC9nPjwvZz48L2c+PGcgc3R5bGU9Im9wYWNpdHk6IDE7IiB0cmFuc2Zvcm09InRyYW5zbGF0ZSg0NTguNTQ2Njc2NjM1NzQyMiwxMTQuOTA5NzIzMjgxODYwMzUpIiBpZD0iZmxvd2NoYXJ0LURvZGFqS2xpZW50YS0xODciIGNsYXNzPSJub2RlIGRlZmF1bHQiPjxyZWN0IGNsYXNzPSJsYWJlbC1jb250YWluZXIiIGhlaWdodD0iMzcuOTM5ODE1NTIxMjQwMjM0IiB3aWR0aD0iMTEyLjc5MTI3NTAyNDQxNDA2IiB5PSItMTguOTY5OTA3NzYwNjIwMTE3IiB4PSItNTYuMzk1NjM3NTEyMjA3MDMiIHJ5PSIwIiByeD0iMCI+PC9yZWN0PjxnIHRyYW5zZm9ybT0idHJhbnNsYXRlKDAsMCkiIGNsYXNzPSJsYWJlbCI+PGcgdHJhbnNmb3JtPSJ0cmFuc2xhdGUoLTQ2LjM5NTYzNzUxMjIwNzAzLC04Ljk2OTkwNzc2MDYyMDExNykiPjx0ZXh0IHN0eWxlPSIiPjx0c3BhbiB4PSIxIiBkeT0iMWVtIiB4bWw6c3BhY2U9InByZXNlcnZlIj5Eb2RhaiBrbGllbnRhPC90c3Bhbj48L3RleHQ+PC9nPjwvZz48L2c+PGcgc3R5bGU9Im9wYWNpdHk6IDE7IiB0cmFuc2Zvcm09InRyYW5zbGF0ZSg4NzAuNTU2MDYwNzkxMDE1NiwxMTQuOTA5NzIzMjgxODYwMzUpIiBpZD0iZmxvd2NoYXJ0LVBva2F6S3NpYXpraS0xODgiIGNsYXNzPSJub2RlIGRlZmF1bHQiPjxyZWN0IGNsYXNzPSJsYWJlbC1jb250YWluZXIiIGhlaWdodD0iMzcuOTM5ODE1NTIxMjQwMjM0IiB3aWR0aD0iMTg5LjY4Njc4MjgzNjkxNDA2IiB5PSItMTguOTY5OTA3NzYwNjIwMTE3IiB4PSItOTQuODQzMzkxNDE4NDU3MDMiIHJ5PSIwIiByeD0iMCI+PC9yZWN0PjxnIHRyYW5zZm9ybT0idHJhbnNsYXRlKDAsMCkiIGNsYXNzPSJsYWJlbCI+PGcgdHJhbnNmb3JtPSJ0cmFuc2xhdGUoLTg0Ljg0MzM5MTQxODQ1NzAzLC04Ljk2OTkwNzc2MDYyMDExNykiPjx0ZXh0IHN0eWxlPSIiPjx0c3BhbiB4PSIxIiBkeT0iMWVtIiB4bWw6c3BhY2U9InByZXNlcnZlIj5Qb2thxbwgd3N6eXN0a2llIGtzacSFxbxraTwvdHNwYW4+PC90ZXh0PjwvZz48L2c+PC9nPjxnIHN0eWxlPSJvcGFjaXR5OiAxOyIgdHJhbnNmb3JtPSJ0cmFuc2xhdGUoMTM3MC44NzY1NDExMzc2OTUzLDExNC45MDk3MjMyODE4NjAzNSkiIGlkPSJmbG93Y2hhcnQtUG9rYXpLbGllbnRvdy0xODkiIGNsYXNzPSJub2RlIGRlZmF1bHQiPjxyZWN0IGNsYXNzPSJsYWJlbC1jb250YWluZXIiIGhlaWdodD0iMzcuOTM5ODE1NTIxMjQwMjM0IiB3aWR0aD0iMjA4LjA2ODgxNzEzODY3MTg4IiB5PSItMTguOTY5OTA3NzYwNjIwMTE3IiB4PSItMTA0LjAzNDQwODU2OTMzNTk0IiByeT0iMCIgcng9IjAiPjwvcmVjdD48ZyB0cmFuc2Zvcm09InRyYW5zbGF0ZSgwLDApIiBjbGFzcz0ibGFiZWwiPjxnIHRyYW5zZm9ybT0idHJhbnNsYXRlKC05NC4wMzQ0MDg1NjkzMzU5NCwtOC45Njk5MDc3NjA2MjAxMTcpIj48dGV4dCBzdHlsZT0iIj48dHNwYW4geD0iMSIgZHk9IjFlbSIgeG1sOnNwYWNlPSJwcmVzZXJ2ZSI+UG9rYcW8IHdzenlzdGtpY2gga2xpZW50w7N3PC90c3Bhbj48L3RleHQ+PC9nPjwvZz48L2c+PGcgc3R5bGU9Im9wYWNpdHk6IDE7IiB0cmFuc2Zvcm09InRyYW5zbGF0ZSgxODYwLjE1NjQxNzg0NjY3OTcsMTE0LjkwOTcyMzI4MTg2MDM1KSIgaWQ9ImZsb3djaGFydC1XeXBvenljektzaWF6a2UtMTkwIiBjbGFzcz0ibm9kZSBkZWZhdWx0Ij48cmVjdCBjbGFzcz0ibGFiZWwtY29udGFpbmVyIiBoZWlnaHQ9IjM3LjkzOTgxNTUyMTI0MDIzNCIgd2lkdGg9IjE1MC40NTI0Njg4NzIwNzAzIiB5PSItMTguOTY5OTA3NzYwNjIwMTE3IiB4PSItNzUuMjI2MjM0NDM2MDM1MTYiIHJ5PSIwIiByeD0iMCI+PC9yZWN0PjxnIHRyYW5zZm9ybT0idHJhbnNsYXRlKDAsMCkiIGNsYXNzPSJsYWJlbCI+PGcgdHJhbnNmb3JtPSJ0cmFuc2xhdGUoLTY1LjIyNjIzNDQzNjAzNTE2LC04Ljk2OTkwNzc2MDYyMDExNykiPjx0ZXh0IHN0eWxlPSIiPjx0c3BhbiB4PSIxIiBkeT0iMWVtIiB4bWw6c3BhY2U9InByZXNlcnZlIj5XeXBvxbx5Y3oga3NpxIXFvGvEmTwvdHNwYW4+PC90ZXh0PjwvZz48L2c+PC9nPjxnIHN0eWxlPSJvcGFjaXR5OiAxOyIgdHJhbnNmb3JtPSJ0cmFuc2xhdGUoMjMwNy43NjUxMDYyMDExNzIsMTE0LjkwOTcyMzI4MTg2MDM1KSIgaWQ9ImZsb3djaGFydC1ad3JvY0tzaWF6a2UtMTkxIiBjbGFzcz0ibm9kZSBkZWZhdWx0Ij48cmVjdCBjbGFzcz0ibGFiZWwtY29udGFpbmVyIiBoZWlnaHQ9IjM3LjkzOTgxNTUyMTI0MDIzNCIgd2lkdGg9IjEyMS4yNzMxNDc1ODMwMDc4MSIgeT0iLTE4Ljk2OTkwNzc2MDYyMDExNyIgeD0iLTYwLjYzNjU3Mzc5MTUwMzkwNiIgcnk9IjAiIHJ4PSIwIj48L3JlY3Q+PGcgdHJhbnNmb3JtPSJ0cmFuc2xhdGUoMCwwKSIgY2xhc3M9ImxhYmVsIj48ZyB0cmFuc2Zvcm09InRyYW5zbGF0ZSgtNTAuNjM2NTczNzkxNTAzOTA2LC04Ljk2OTkwNzc2MDYyMDExNykiPjx0ZXh0IHN0eWxlPSIiPjx0c3BhbiB4PSIxIiBkeT0iMWVtIiB4bWw6c3BhY2U9InByZXNlcnZlIj5ad3LDs8SHIGtzacSFxbxrxJk8L3RzcGFuPjwvdGV4dD48L2c+PC9nPjwvZz48ZyBzdHlsZT0ib3BhY2l0eTogMTsiIHRyYW5zZm9ybT0idHJhbnNsYXRlKDEzNi42Mjk3MzAyMjQ2MDkzOCwyMDIuODQ5NTM4ODAzMTAwNikiIGlkPSJmbG93Y2hhcnQtT3Bpc0RvZGFqS3NpYXprZS0yMDUiIGNsYXNzPSJub2RlIGRlZmF1bHQiPjxyZWN0IGNsYXNzPSJsYWJlbC1jb250YWluZXIiIGhlaWdodD0iMzcuOTM5ODE1NTIxMjQwMjM0IiB3aWR0aD0iMjU3LjI1OTQ3NTcwODAwNzgiIHk9Ii0xOC45Njk5MDc3NjA2MjAxMTciIHg9Ii0xMjguNjI5NzM3ODU0MDAzOSIgcnk9IjAiIHJ4PSIwIj48L3JlY3Q+PGcgdHJhbnNmb3JtPSJ0cmFuc2xhdGUoMCwwKSIgY2xhc3M9ImxhYmVsIj48ZyB0cmFuc2Zvcm09InRyYW5zbGF0ZSgtMTE4LjYyOTczNzg1NDAwMzksLTguOTY5OTA3NzYwNjIwMTE3KSI+PHRleHQgc3R5bGU9IiI+PHRzcGFuIHg9IjEiIGR5PSIxZW0iIHhtbDpzcGFjZT0icHJlc2VydmUiPkRvZGFqZSBub3fEhSBrc2nEhcW8a8SZIGRvIHN5c3RlbXU8L3RzcGFuPjwvdGV4dD48L2c+PC9nPjwvZz48ZyBzdHlsZT0ib3BhY2l0eTogMTsiIHRyYW5zZm9ybT0idHJhbnNsYXRlKDQ1OC41NDY2NzY2MzU3NDIyLDIwMi44NDk1Mzg4MDMxMDA2KSIgaWQ9ImZsb3djaGFydC1PcGlzRG9kYWpLbGllbnRhLTIwNyIgY2xhc3M9Im5vZGUgZGVmYXVsdCI+PHJlY3QgY2xhc3M9ImxhYmVsLWNvbnRhaW5lciIgaGVpZ2h0PSIzNy45Mzk4MTU1MjEyNDAyMzQiIHdpZHRoPSIyODYuNTc0NDMyMzczMDQ2OSIgeT0iLTE4Ljk2OTkwNzc2MDYyMDExNyIgeD0iLTE0My4yODcyMTYxODY1MjM0NCIgcnk9IjAiIHJ4PSIwIj48L3JlY3Q+PGcgdHJhbnNmb3JtPSJ0cmFuc2xhdGUoMCwwKSIgY2xhc3M9ImxhYmVsIj48ZyB0cmFuc2Zvcm09InRyYW5zbGF0ZSgtMTMzLjI4NzIxNjE4NjUyMzQ0LC04Ljk2OTkwNzc2MDYyMDExNykiPjx0ZXh0IHN0eWxlPSIiPjx0c3BhbiB4PSIxIiBkeT0iMWVtIiB4bWw6c3BhY2U9InByZXNlcnZlIj5SZWplc3RydWplIG5vd2VnbyBrbGllbnRhIHcgc3lzdGVtaWU8L3RzcGFuPjwvdGV4dD48L2c+PC9nPjwvZz48ZyBzdHlsZT0ib3BhY2l0eTogMTsiIHRyYW5zZm9ybT0idHJhbnNsYXRlKDg3MC41NTYwNjA3OTEwMTU2LDIwMi44NDk1Mzg4MDMxMDA2KSIgaWQ9ImZsb3djaGFydC1PcGlzUG9rYXpLc2lhemtpLTIwOSIgY2xhc3M9Im5vZGUgZGVmYXVsdCI+PHJlY3QgY2xhc3M9ImxhYmVsLWNvbnRhaW5lciIgaGVpZ2h0PSIzNy45Mzk4MTU1MjEyNDAyMzQiIHdpZHRoPSI0MzcuNDQ0MzA1NDE5OTIxOSIgeT0iLTE4Ljk2OTkwNzc2MDYyMDExNyIgeD0iLTIxOC43MjIxNTI3MDk5NjA5NCIgcnk9IjAiIHJ4PSIwIj48L3JlY3Q+PGcgdHJhbnNmb3JtPSJ0cmFuc2xhdGUoMCwwKSIgY2xhc3M9ImxhYmVsIj48ZyB0cmFuc2Zvcm09InRyYW5zbGF0ZSgtMjA4LjcyMjE1MjcwOTk2MDk0LC04Ljk2OTkwNzc2MDYyMDExNykiPjx0ZXh0IHN0eWxlPSIiPjx0c3BhbiB4PSIxIiBkeT0iMWVtIiB4bWw6c3BhY2U9InByZXNlcnZlIj5XecWbd2lldGxhIGxpc3TEmSB3c3p5c3RraWNoIGRvc3TEmXBueWNoIGtzacSFxbxlayB3IGJpYmxpb3RlY2U8L3RzcGFuPjwvdGV4dD48L2c+PC9nPjwvZz48ZyBzdHlsZT0ib3BhY2l0eTogMTsiIHRyYW5zZm9ybT0idHJhbnNsYXRlKDEzNzAuODc2NTQxMTM3Njk1MywyMDIuODQ5NTM4ODAzMTAwNikiIGlkPSJmbG93Y2hhcnQtT3Bpc1Bva2F6S2xpZW50b3ctMjExIiBjbGFzcz0ibm9kZSBkZWZhdWx0Ij48cmVjdCBjbGFzcz0ibGFiZWwtY29udGFpbmVyIiBoZWlnaHQ9IjM3LjkzOTgxNTUyMTI0MDIzNCIgd2lkdGg9IjQ2My4xOTY2MjQ3NTU4NTk0IiB5PSItMTguOTY5OTA3NzYwNjIwMTE3IiB4PSItMjMxLjU5ODMxMjM3NzkyOTciIHJ5PSIwIiByeD0iMCI+PC9yZWN0PjxnIHRyYW5zZm9ybT0idHJhbnNsYXRlKDAsMCkiIGNsYXNzPSJsYWJlbCI+PGcgdHJhbnNmb3JtPSJ0cmFuc2xhdGUoLTIyMS41OTgzMTIzNzc5Mjk3LC04Ljk2OTkwNzc2MDYyMDExNykiPjx0ZXh0IHN0eWxlPSIiPjx0c3BhbiB4PSIxIiBkeT0iMWVtIiB4bWw6c3BhY2U9InByZXNlcnZlIj5XecWbd2lldGxhIGxpc3TEmSB3c3p5c3RraWNoIHphcmVqZXN0cm93YW55Y2gga2xpZW50w7N3IGJpYmxpb3Rla2k8L3RzcGFuPjwvdGV4dD48L2c+PC9nPjwvZz48ZyBzdHlsZT0ib3BhY2l0eTogMTsiIHRyYW5zZm9ybT0idHJhbnNsYXRlKDE4NjAuMTU2NDE3ODQ2Njc5NywyMDIuODQ5NTM4ODAzMTAwNikiIGlkPSJmbG93Y2hhcnQtT3Bpc1d5cG96eWN6S3NpYXprZS0yMTMiIGNsYXNzPSJub2RlIGRlZmF1bHQiPjxyZWN0IGNsYXNzPSJsYWJlbC1jb250YWluZXIiIGhlaWdodD0iMzcuOTM5ODE1NTIxMjQwMjM0IiB3aWR0aD0iNDE1LjM2MzEyODY2MjEwOTQiIHk9Ii0xOC45Njk5MDc3NjA2MjAxMTciIHg9Ii0yMDcuNjgxNTY0MzMxMDU0NyIgcnk9IjAiIHJ4PSIwIj48L3JlY3Q+PGcgdHJhbnNmb3JtPSJ0cmFuc2xhdGUoMCwwKSIgY2xhc3M9ImxhYmVsIj48ZyB0cmFuc2Zvcm09InRyYW5zbGF0ZSgtMTk3LjY4MTU2NDMzMTA1NDcsLTguOTY5OTA3NzYwNjIwMTE3KSI+PHRleHQgc3R5bGU9IiI+PHRzcGFuIHg9IjEiIGR5PSIxZW0iIHhtbDpzcGFjZT0icHJlc2VydmUiPlVtb8W8bGl3aWEgcHJhY293bmlrb3dpIHd5cG/FvHljemVuaWUga3NpxIXFvGtpIGtsaWVudG93aTwvdHNwYW4+PC90ZXh0PjwvZz48L2c+PC9nPjxnIHN0eWxlPSJvcGFjaXR5OiAxOyIgdHJhbnNmb3JtPSJ0cmFuc2xhdGUoMjMwNy43NjUxMDYyMDExNzIsMjAyLjg0OTUzODgwMzEwMDYpIiBpZD0iZmxvd2NoYXJ0LU9waXNad3JvY0tzaWF6a2UtMjE1IiBjbGFzcz0ibm9kZSBkZWZhdWx0Ij48cmVjdCBjbGFzcz0ibGFiZWwtY29udGFpbmVyIiBoZWlnaHQ9IjM3LjkzOTgxNTUyMTI0MDIzNCIgd2lkdGg9IjM3OS44NTQyNDgwNDY4NzUiIHk9Ii0xOC45Njk5MDc3NjA2MjAxMTciIHg9Ii0xODkuOTI3MTI0MDIzNDM3NSIgcnk9IjAiIHJ4PSIwIj48L3JlY3Q+PGcgdHJhbnNmb3JtPSJ0cmFuc2xhdGUoMCwwKSIgY2xhc3M9ImxhYmVsIj48ZyB0cmFuc2Zvcm09InRyYW5zbGF0ZSgtMTc5LjkyNzEyNDAyMzQzNzUsLTguOTY5OTA3NzYwNjIwMTE3KSI+PHRleHQgc3R5bGU9IiI+PHRzcGFuIHg9IjEiIGR5PSIxZW0iIHhtbDpzcGFjZT0icHJlc2VydmUiPlJlamVzdHJ1amUgendyb3Qgd3lwb8W8eWN6b25laiBrc2nEhcW8a2kgZG8gYmlibGlvdGVraTwvdHNwYW4+PC90ZXh0PjwvZz48L2c+PC9nPjwvZz48L2c+PC9nPjwvc3ZnPg==;" parent="1" vertex="1">
                        <mxGeometry x="400" y="140" width="520" height="970" as="geometry"/>
                    </mxCell>
                </UserObject>
            </root>
        </mxGraphModel>
    </diagram>
    <diagram id="NO__NVMHsUUl6Dv7yoVk" name="Page-2">
        <mxGraphModel dx="468" dy="1302" grid="1" gridSize="10" guides="1" tooltips="1" connect="1" arrows="1" fold="1" page="1" pageScale="1" pageWidth="850" pageHeight="1100" math="0" shadow="0">
            <root>
                <mxCell id="0"/>
                <mxCell id="1" parent="0"/>
                <UserObject label="" mermaidData="{&#10;  &quot;data&quot;: &quot;classDiagram\n    class Library {\n        -List~Book~ books\n        -List~Customer~ customers\n        +addBook(Book book)\n        +deleteBook(Book book)\n        +addCustomer(Customer customer)\n        +rentBook(String title, String name, String surname)\n        +giveBack(String title, String name, String surname)\n        +showCustomers()\n        +showBooks()\n        +searchCustomer(String name, String surname) boolean\n        +searchBook(String title) boolean\n        +countCopies(Book book) int\n    }\n\n    class Customer {\n        -String name\n        -String surname\n        -int howManyBorrowed\n        -List~Book~ borrowedBooks\n        +Customer(String name, String surname)\n        +getName() String\n        +getNumber() int\n        +borrow(Book book)\n        +giveBookBack(Book book)\n        +getBorrowedBooks() List~Book~\n    }\n\n    class Book {\n        -String title\n        +Book(String title)\n        +getTitle() String\n    }\n\n    class Main {\n        -Library library\n        +main(String[] args)\n    }\n\n    Library \&quot;1\&quot; --&gt; \&quot;*\&quot; Book : zarządza\n    Library \&quot;1\&quot; --&gt; \&quot;*\&quot; Customer : zarządza\n    Customer \&quot;1\&quot; --&gt; \&quot;*\&quot; Book : wypożycza\n    Main ..&gt; Library : używa\n&quot;,&#10;  &quot;config&quot;: {&#10;    &quot;theme&quot;: &quot;neutral&quot;,&#10;    &quot;arrowMarkerAbsolute&quot;: false,&#10;    &quot;flowchart&quot;: {&#10;      &quot;htmlLabels&quot;: false&#10;    },&#10;    &quot;sequence&quot;: {&#10;      &quot;diagramMarginX&quot;: 50,&#10;      &quot;diagramMarginY&quot;: 10,&#10;      &quot;actorMargin&quot;: 50,&#10;      &quot;width&quot;: 150,&#10;      &quot;height&quot;: 65,&#10;      &quot;boxMargin&quot;: 10,&#10;      &quot;boxTextMargin&quot;: 5,&#10;      &quot;noteMargin&quot;: 10,&#10;      &quot;messageMargin&quot;: 35,&#10;      &quot;mirrorActors&quot;: true,&#10;      &quot;bottomMarginAdj&quot;: 1,&#10;      &quot;useMaxWidth&quot;: true,&#10;      &quot;rightAngles&quot;: false,&#10;      &quot;showSequenceNumbers&quot;: false&#10;    },&#10;    &quot;gantt&quot;: {&#10;      &quot;titleTopMargin&quot;: 25,&#10;      &quot;barHeight&quot;: 20,&#10;      &quot;barGap&quot;: 4,&#10;      &quot;topPadding&quot;: 50,&#10;      &quot;leftPadding&quot;: 75,&#10;      &quot;gridLineStartPadding&quot;: 35,&#10;      &quot;fontSize&quot;: 11,&#10;      &quot;fontFamily&quot;: &quot;\&quot;Open-Sans\&quot;, \&quot;sans-serif\&quot;&quot;,&#10;      &quot;numberSectionStyles&quot;: 4,&#10;      &quot;axisFormat&quot;: &quot;%Y-%m-%d&quot;&#10;    }&#10;  }&#10;}" id="nD5BQkDhvZvmuzr4xR2h-1">
                    <mxCell style="shape=image;noLabel=1;verticalAlign=top;imageAspect=1;image=data:image/svg+xml,PHN2ZyBhcmlhLWxhYmVsbGVkYnk9ImNoYXJ0LXRpdGxlLWdlTWVybWFpZE91dHB1dC0xNzMwMjAzNTk1MTQzIGNoYXJ0LWRlc2MtZ2VNZXJtYWlkT3V0cHV0LTE3MzAyMDM1OTUxNDMiIHJvbGU9ImltZyIgdmlld0JveD0iMCAwIDQ5My42MTQ2MzM1NjAxODA2NiAxMDM5Ljk1Mzc1NDQyNTA0ODgiIHN0eWxlPSJtYXgtd2lkdGg6IDQ5My42MTQ2MzM1NjAxODA2NnB4OyIgaGVpZ2h0PSIxMDM5Ljk1Mzc1NDQyNTA0ODgiIHhtbG5zOnhsaW5rPSJodHRwOi8vd3d3LnczLm9yZy8xOTk5L3hsaW5rIiB4bWxucz0iaHR0cDovL3d3dy53My5vcmcvMjAwMC9zdmciIHdpZHRoPSIxMDAlIiBpZD0iZ2VNZXJtYWlkT3V0cHV0LTE3MzAyMDM1OTUxNDMiPjx0aXRsZSBpZD0iY2hhcnQtdGl0bGUtZ2VNZXJtYWlkT3V0cHV0LTE3MzAyMDM1OTUxNDMiPjwvdGl0bGU+PGRlc2MgaWQ9ImNoYXJ0LWRlc2MtZ2VNZXJtYWlkT3V0cHV0LTE3MzAyMDM1OTUxNDMiPjwvZGVzYz48c3R5bGU+I2dlTWVybWFpZE91dHB1dC0xNzMwMjAzNTk1MTQzIHtmb250LWZhbWlseToidHJlYnVjaGV0IG1zIix2ZXJkYW5hLGFyaWFsLHNhbnMtc2VyaWY7Zm9udC1zaXplOjE2cHg7ZmlsbDojY2NjO30jZ2VNZXJtYWlkT3V0cHV0LTE3MzAyMDM1OTUxNDMgLmVycm9yLWljb257ZmlsbDojYTQ0MTQxO30jZ2VNZXJtYWlkT3V0cHV0LTE3MzAyMDM1OTUxNDMgLmVycm9yLXRleHR7ZmlsbDojZGRkO3N0cm9rZTojZGRkO30jZ2VNZXJtYWlkT3V0cHV0LTE3MzAyMDM1OTUxNDMgLmVkZ2UtdGhpY2tuZXNzLW5vcm1hbHtzdHJva2Utd2lkdGg6MnB4O30jZ2VNZXJtYWlkT3V0cHV0LTE3MzAyMDM1OTUxNDMgLmVkZ2UtdGhpY2tuZXNzLXRoaWNre3N0cm9rZS13aWR0aDozLjVweDt9I2dlTWVybWFpZE91dHB1dC0xNzMwMjAzNTk1MTQzIC5lZGdlLXBhdHRlcm4tc29saWR7c3Ryb2tlLWRhc2hhcnJheTowO30jZ2VNZXJtYWlkT3V0cHV0LTE3MzAyMDM1OTUxNDMgLmVkZ2UtcGF0dGVybi1kYXNoZWR7c3Ryb2tlLWRhc2hhcnJheTozO30jZ2VNZXJtYWlkT3V0cHV0LTE3MzAyMDM1OTUxNDMgLmVkZ2UtcGF0dGVybi1kb3R0ZWR7c3Ryb2tlLWRhc2hhcnJheToyO30jZ2VNZXJtYWlkT3V0cHV0LTE3MzAyMDM1OTUxNDMgLm1hcmtlcntmaWxsOmxpZ2h0Z3JleTtzdHJva2U6bGlnaHRncmV5O30jZ2VNZXJtYWlkT3V0cHV0LTE3MzAyMDM1OTUxNDMgLm1hcmtlci5jcm9zc3tzdHJva2U6bGlnaHRncmV5O30jZ2VNZXJtYWlkT3V0cHV0LTE3MzAyMDM1OTUxNDMgc3Zne2ZvbnQtZmFtaWx5OiJ0cmVidWNoZXQgbXMiLHZlcmRhbmEsYXJpYWwsc2Fucy1zZXJpZjtmb250LXNpemU6MTZweDt9I2dlTWVybWFpZE91dHB1dC0xNzMwMjAzNTk1MTQzIGcuY2xhc3NHcm91cCB0ZXh0e2ZpbGw6IzgxQjFEQjtmaWxsOiNlMGRmZGY7c3Ryb2tlOm5vbmU7Zm9udC1mYW1pbHk6InRyZWJ1Y2hldCBtcyIsdmVyZGFuYSxhcmlhbCxzYW5zLXNlcmlmO2ZvbnQtc2l6ZToxMHB4O30jZ2VNZXJtYWlkT3V0cHV0LTE3MzAyMDM1OTUxNDMgZy5jbGFzc0dyb3VwIHRleHQgLnRpdGxle2ZvbnQtd2VpZ2h0OmJvbGRlcjt9I2dlTWVybWFpZE91dHB1dC0xNzMwMjAzNTk1MTQzIC5ub2RlTGFiZWwsI2dlTWVybWFpZE91dHB1dC0xNzMwMjAzNTk1MTQzIC5lZGdlTGFiZWx7Y29sb3I6I2UwZGZkZjt9I2dlTWVybWFpZE91dHB1dC0xNzMwMjAzNTk1MTQzIC5lZGdlTGFiZWwgLmxhYmVsIHJlY3R7ZmlsbDojMWYyMDIwO30jZ2VNZXJtYWlkT3V0cHV0LTE3MzAyMDM1OTUxNDMgLmxhYmVsIHRleHR7ZmlsbDojZTBkZmRmO30jZ2VNZXJtYWlkT3V0cHV0LTE3MzAyMDM1OTUxNDMgLmVkZ2VMYWJlbCAubGFiZWwgc3BhbntiYWNrZ3JvdW5kOiMxZjIwMjA7fSNnZU1lcm1haWRPdXRwdXQtMTczMDIwMzU5NTE0MyAuY2xhc3NUaXRsZXtmb250LXdlaWdodDpib2xkZXI7fSNnZU1lcm1haWRPdXRwdXQtMTczMDIwMzU5NTE0MyAubm9kZSByZWN0LCNnZU1lcm1haWRPdXRwdXQtMTczMDIwMzU5NTE0MyAubm9kZSBjaXJjbGUsI2dlTWVybWFpZE91dHB1dC0xNzMwMjAzNTk1MTQzIC5ub2RlIGVsbGlwc2UsI2dlTWVybWFpZE91dHB1dC0xNzMwMjAzNTk1MTQzIC5ub2RlIHBvbHlnb24sI2dlTWVybWFpZE91dHB1dC0xNzMwMjAzNTk1MTQzIC5ub2RlIHBhdGh7ZmlsbDojMWYyMDIwO3N0cm9rZTojODFCMURCO3N0cm9rZS13aWR0aDoxcHg7fSNnZU1lcm1haWRPdXRwdXQtMTczMDIwMzU5NTE0MyAuZGl2aWRlcntzdHJva2U6IzgxQjFEQjtzdHJva2U6MTt9I2dlTWVybWFpZE91dHB1dC0xNzMwMjAzNTk1MTQzIGcuY2xpY2thYmxle2N1cnNvcjpwb2ludGVyO30jZ2VNZXJtYWlkT3V0cHV0LTE3MzAyMDM1OTUxNDMgZy5jbGFzc0dyb3VwIHJlY3R7ZmlsbDojMWYyMDIwO3N0cm9rZTojODFCMURCO30jZ2VNZXJtYWlkT3V0cHV0LTE3MzAyMDM1OTUxNDMgZy5jbGFzc0dyb3VwIGxpbmV7c3Ryb2tlOiM4MUIxREI7c3Ryb2tlLXdpZHRoOjE7fSNnZU1lcm1haWRPdXRwdXQtMTczMDIwMzU5NTE0MyAuY2xhc3NMYWJlbCAuYm94e3N0cm9rZTpub25lO3N0cm9rZS13aWR0aDowO2ZpbGw6IzFmMjAyMDtvcGFjaXR5OjAuNTt9I2dlTWVybWFpZE91dHB1dC0xNzMwMjAzNTk1MTQzIC5jbGFzc0xhYmVsIC5sYWJlbHtmaWxsOiM4MUIxREI7Zm9udC1zaXplOjEwcHg7fSNnZU1lcm1haWRPdXRwdXQtMTczMDIwMzU5NTE0MyAucmVsYXRpb257c3Ryb2tlOmxpZ2h0Z3JleTtzdHJva2Utd2lkdGg6MTtmaWxsOm5vbmU7fSNnZU1lcm1haWRPdXRwdXQtMTczMDIwMzU5NTE0MyAuZGFzaGVkLWxpbmV7c3Ryb2tlLWRhc2hhcnJheTozO30jZ2VNZXJtYWlkT3V0cHV0LTE3MzAyMDM1OTUxNDMgI2NvbXBvc2l0aW9uU3RhcnQsI2dlTWVybWFpZE91dHB1dC0xNzMwMjAzNTk1MTQzIC5jb21wb3NpdGlvbntmaWxsOmxpZ2h0Z3JleSFpbXBvcnRhbnQ7c3Ryb2tlOmxpZ2h0Z3JleSFpbXBvcnRhbnQ7c3Ryb2tlLXdpZHRoOjE7fSNnZU1lcm1haWRPdXRwdXQtMTczMDIwMzU5NTE0MyAjY29tcG9zaXRpb25FbmQsI2dlTWVybWFpZE91dHB1dC0xNzMwMjAzNTk1MTQzIC5jb21wb3NpdGlvbntmaWxsOmxpZ2h0Z3JleSFpbXBvcnRhbnQ7c3Ryb2tlOmxpZ2h0Z3JleSFpbXBvcnRhbnQ7c3Ryb2tlLXdpZHRoOjE7fSNnZU1lcm1haWRPdXRwdXQtMTczMDIwMzU5NTE0MyAjZGVwZW5kZW5jeVN0YXJ0LCNnZU1lcm1haWRPdXRwdXQtMTczMDIwMzU5NTE0MyAuZGVwZW5kZW5jeXtmaWxsOmxpZ2h0Z3JleSFpbXBvcnRhbnQ7c3Ryb2tlOmxpZ2h0Z3JleSFpbXBvcnRhbnQ7c3Ryb2tlLXdpZHRoOjE7fSNnZU1lcm1haWRPdXRwdXQtMTczMDIwMzU5NTE0MyAjZGVwZW5kZW5jeVN0YXJ0LCNnZU1lcm1haWRPdXRwdXQtMTczMDIwMzU5NTE0MyAuZGVwZW5kZW5jeXtmaWxsOmxpZ2h0Z3JleSFpbXBvcnRhbnQ7c3Ryb2tlOmxpZ2h0Z3JleSFpbXBvcnRhbnQ7c3Ryb2tlLXdpZHRoOjE7fSNnZU1lcm1haWRPdXRwdXQtMTczMDIwMzU5NTE0MyAjZXh0ZW5zaW9uU3RhcnQsI2dlTWVybWFpZE91dHB1dC0xNzMwMjAzNTk1MTQzIC5leHRlbnNpb257ZmlsbDpsaWdodGdyZXkhaW1wb3J0YW50O3N0cm9rZTpsaWdodGdyZXkhaW1wb3J0YW50O3N0cm9rZS13aWR0aDoxO30jZ2VNZXJtYWlkT3V0cHV0LTE3MzAyMDM1OTUxNDMgI2V4dGVuc2lvbkVuZCwjZ2VNZXJtYWlkT3V0cHV0LTE3MzAyMDM1OTUxNDMgLmV4dGVuc2lvbntmaWxsOmxpZ2h0Z3JleSFpbXBvcnRhbnQ7c3Ryb2tlOmxpZ2h0Z3JleSFpbXBvcnRhbnQ7c3Ryb2tlLXdpZHRoOjE7fSNnZU1lcm1haWRPdXRwdXQtMTczMDIwMzU5NTE0MyAjYWdncmVnYXRpb25TdGFydCwjZ2VNZXJtYWlkT3V0cHV0LTE3MzAyMDM1OTUxNDMgLmFnZ3JlZ2F0aW9ue2ZpbGw6IzFmMjAyMCFpbXBvcnRhbnQ7c3Ryb2tlOmxpZ2h0Z3JleSFpbXBvcnRhbnQ7c3Ryb2tlLXdpZHRoOjE7fSNnZU1lcm1haWRPdXRwdXQtMTczMDIwMzU5NTE0MyAjYWdncmVnYXRpb25FbmQsI2dlTWVybWFpZE91dHB1dC0xNzMwMjAzNTk1MTQzIC5hZ2dyZWdhdGlvbntmaWxsOiMxZjIwMjAhaW1wb3J0YW50O3N0cm9rZTpsaWdodGdyZXkhaW1wb3J0YW50O3N0cm9rZS13aWR0aDoxO30jZ2VNZXJtYWlkT3V0cHV0LTE3MzAyMDM1OTUxNDMgLmVkZ2VUZXJtaW5hbHN7Zm9udC1zaXplOjExcHg7fSNnZU1lcm1haWRPdXRwdXQtMTczMDIwMzU5NTE0MyA6cm9vdHstLW1lcm1haWQtZm9udC1mYW1pbHk6InRyZWJ1Y2hldCBtcyIsdmVyZGFuYSxhcmlhbCxzYW5zLXNlcmlmO308L3N0eWxlPjxnIHRyYW5zZm9ybT0idHJhbnNsYXRlKDAsIDApIj48ZGVmcz48bWFya2VyIG9yaWVudD0iYXV0byIgbWFya2VySGVpZ2h0PSIyNDAiIG1hcmtlcldpZHRoPSIxOTAiIHJlZlk9IjciIHJlZlg9IjAiIGNsYXNzPSJtYXJrZXIgYWdncmVnYXRpb24gY2xhc3NEaWFncmFtIiBpZD0iY2xhc3NEaWFncmFtLWFnZ3JlZ2F0aW9uU3RhcnQiPjxwYXRoIGQ9Ik0gMTgsNyBMOSwxMyBMMSw3IEw5LDEgWiI+PC9wYXRoPjwvbWFya2VyPjwvZGVmcz48ZGVmcz48bWFya2VyIG9yaWVudD0iYXV0byIgbWFya2VySGVpZ2h0PSIyOCIgbWFya2VyV2lkdGg9IjIwIiByZWZZPSI3IiByZWZYPSIxOSIgY2xhc3M9Im1hcmtlciBhZ2dyZWdhdGlvbiBjbGFzc0RpYWdyYW0iIGlkPSJjbGFzc0RpYWdyYW0tYWdncmVnYXRpb25FbmQiPjxwYXRoIGQ9Ik0gMTgsNyBMOSwxMyBMMSw3IEw5LDEgWiI+PC9wYXRoPjwvbWFya2VyPjwvZGVmcz48ZGVmcz48bWFya2VyIG9yaWVudD0iYXV0byIgbWFya2VySGVpZ2h0PSIyNDAiIG1hcmtlcldpZHRoPSIxOTAiIHJlZlk9IjciIHJlZlg9IjAiIGNsYXNzPSJtYXJrZXIgZXh0ZW5zaW9uIGNsYXNzRGlhZ3JhbSIgaWQ9ImNsYXNzRGlhZ3JhbS1leHRlbnNpb25TdGFydCI+PHBhdGggZD0iTSAxLDcgTDE4LDEzIFYgMSBaIj48L3BhdGg+PC9tYXJrZXI+PC9kZWZzPjxkZWZzPjxtYXJrZXIgb3JpZW50PSJhdXRvIiBtYXJrZXJIZWlnaHQ9IjI4IiBtYXJrZXJXaWR0aD0iMjAiIHJlZlk9IjciIHJlZlg9IjE5IiBjbGFzcz0ibWFya2VyIGV4dGVuc2lvbiBjbGFzc0RpYWdyYW0iIGlkPSJjbGFzc0RpYWdyYW0tZXh0ZW5zaW9uRW5kIj48cGF0aCBkPSJNIDEsMSBWIDEzIEwxOCw3IFoiPjwvcGF0aD48L21hcmtlcj48L2RlZnM+PGRlZnM+PG1hcmtlciBvcmllbnQ9ImF1dG8iIG1hcmtlckhlaWdodD0iMjQwIiBtYXJrZXJXaWR0aD0iMTkwIiByZWZZPSI3IiByZWZYPSIwIiBjbGFzcz0ibWFya2VyIGNvbXBvc2l0aW9uIGNsYXNzRGlhZ3JhbSIgaWQ9ImNsYXNzRGlhZ3JhbS1jb21wb3NpdGlvblN0YXJ0Ij48cGF0aCBkPSJNIDE4LDcgTDksMTMgTDEsNyBMOSwxIFoiPjwvcGF0aD48L21hcmtlcj48L2RlZnM+PGRlZnM+PG1hcmtlciBvcmllbnQ9ImF1dG8iIG1hcmtlckhlaWdodD0iMjgiIG1hcmtlcldpZHRoPSIyMCIgcmVmWT0iNyIgcmVmWD0iMTkiIGNsYXNzPSJtYXJrZXIgY29tcG9zaXRpb24gY2xhc3NEaWFncmFtIiBpZD0iY2xhc3NEaWFncmFtLWNvbXBvc2l0aW9uRW5kIj48cGF0aCBkPSJNIDE4LDcgTDksMTMgTDEsNyBMOSwxIFoiPjwvcGF0aD48L21hcmtlcj48L2RlZnM+PGRlZnM+PG1hcmtlciBvcmllbnQ9ImF1dG8iIG1hcmtlckhlaWdodD0iMjQwIiBtYXJrZXJXaWR0aD0iMTkwIiByZWZZPSI3IiByZWZYPSIwIiBjbGFzcz0ibWFya2VyIGRlcGVuZGVuY3kgY2xhc3NEaWFncmFtIiBpZD0iY2xhc3NEaWFncmFtLWRlcGVuZGVuY3lTdGFydCI+PHBhdGggZD0iTSA1LDcgTDksMTMgTDEsNyBMOSwxIFoiPjwvcGF0aD48L21hcmtlcj48L2RlZnM+PGRlZnM+PG1hcmtlciBvcmllbnQ9ImF1dG8iIG1hcmtlckhlaWdodD0iMjgiIG1hcmtlcldpZHRoPSIyMCIgcmVmWT0iNyIgcmVmWD0iMTkiIGNsYXNzPSJtYXJrZXIgZGVwZW5kZW5jeSBjbGFzc0RpYWdyYW0iIGlkPSJjbGFzc0RpYWdyYW0tZGVwZW5kZW5jeUVuZCI+PHBhdGggZD0iTSAxOCw3IEw5LDEzIEwxNCw3IEw5LDEgWiI+PC9wYXRoPjwvbWFya2VyPjwvZGVmcz48ZyBjbGFzcz0icm9vdCI+PGcgY2xhc3M9ImNsdXN0ZXJzIj48L2c+PGcgY2xhc3M9ImVkZ2VQYXRocyI+PHBhdGggbWFya2VyLWVuZD0idXJsKCNjbGFzc0RpYWdyYW0tZGVwZW5kZW5jeUVuZCkiIHN0eWxlPSJmaWxsOm5vbmUiIGNsYXNzPSJlZGdlLXBhdHRlcm4tc29saWQgcmVsYXRpb24iIGlkPSJpZDEiIGQ9Ik0xMjkuNjIwNDI3MDc1NTYyMzMsNDk2Ljk3Njg3OTExOTg3MzA1TDEyNi4zODk2NTg0MDQzMzgyNSw1MDIuNjM4NTMwNDEzMzA5NzVDMTIzLjE1ODg4OTczMzExNDE1LDUwOC4zMDAxODE3MDY3NDY0LDExNi42OTczNTIzOTA2NjU5Nyw1MTkuNjIzNDg0MjkzNjE5OCwxMTMuNDY2NTgzNzE5NDQxODcsNTUzLjk3NDk1MjA2MTk3MTFDMTEwLjIzNTgxNTA0ODIxNzc3LDU4OC4zMjY0MTk4MzAzMjIzLDExMC4yMzU4MTUwNDgyMTc3Nyw2NDUuNzA2MDUyNzgwMTUxNCwxMTAuMjM1ODE1MDQ4MjE3NzcsNzAzLjA4NTY4NTcyOTk4MDVDMTEwLjIzNTgxNTA0ODIxNzc3LDc2MC40NjUzMTg2Nzk4MDk2LDExMC4yMzU4MTUwNDgyMTc3Nyw4MTcuODQ0OTUxNjI5NjM4NywxMTYuODE4NjI2MDg1OTE3MTYsODUyLjIwMjIzOTMzOTkzMjhDMTIzLjQwMTQzNzEyMzYxNjUzLDg4Ni41NTk1MjcwNTAyMjY3LDEzNi41NjcwNTkxOTkwMTUzLDg5Ny44OTQ0Njk1MjA5ODU3LDE0My4xNDk4NzAyMzY3MTQ3LDkwMy41NjE5NDA3NTYzNjUzTDE0OS43MzI2ODEyNzQ0MTQwNiw5MDkuMjI5NDExOTkxNzQ0OCI+PC9wYXRoPjxwYXRoIG1hcmtlci1lbmQ9InVybCgjY2xhc3NEaWFncmFtLWRlcGVuZGVuY3lFbmQpIiBzdHlsZT0iZmlsbDpub25lIiBjbGFzcz0iZWRnZS1wYXR0ZXJuLXNvbGlkIHJlbGF0aW9uIiBpZD0iaWQyIiBkPSJNMzEyLjM0OTYzNTE4MDI5Nyw0OTYuOTc2ODc5MTE5ODczMDVMMzE1LjU4MDQwMzg1MTUyMTEsNTAyLjYzODUzMDQxMzMwOTc1QzMxOC44MTExNzI1MjI3NDUyLDUwOC4zMDAxODE3MDY3NDY0LDMyNS4yNzI3MDk4NjUxOTM0LDUxOS42MjM0ODQyOTM2MTk4LDMyOC41MDM0Nzg1MzY0MTc1LDUzMC45NDY3ODY4ODA0OTMyQzMzMS43MzQyNDcyMDc2NDE2LDU0Mi4yNzAwODk0NjczNjY2LDMzMS43MzQyNDcyMDc2NDE2LDU1My41OTMzOTIwNTQyMzk5LDMzMS43MzQyNDcyMDc2NDE2LDU1OS4yNTUwNDMzNDc2NzY2TDMzMS43MzQyNDcyMDc2NDE2LDU2NC45MTY2OTQ2NDExMTMzIj48L3BhdGg+PHBhdGggbWFya2VyLWVuZD0idXJsKCNjbGFzc0RpYWdyYW0tZGVwZW5kZW5jeUVuZCkiIHN0eWxlPSJmaWxsOm5vbmUiIGNsYXNzPSJlZGdlLXBhdHRlcm4tc29saWQgcmVsYXRpb24iIGlkPSJpZDMiIGQ9Ik0zMzEuNzM0MjQ3MjA3NjQxNiw4NDEuMjU0Njc2ODE4ODQ3N0wzMzEuNzM0MjQ3MjA3NjQxNiw4NDYuOTE2MzI4MTEyMjg0M0MzMzEuNzM0MjQ3MjA3NjQxNiw4NTIuNTc3OTc5NDA1NzIxMSwzMzEuNzM0MjQ3MjA3NjQxNiw4NjMuOTAxMjgxOTkyNTk0NCwzMjUuMTUxNDM2MTY5OTQyMiw4NzUuMjMwNDA0NTIxNDEwNkMzMTguNTY4NjI1MTMyMjQyODYsODg2LjU1OTUyNzA1MDIyNjcsMzA1LjQwMzAwMzA1Njg0NDA2LDg5Ny44OTQ0Njk1MjA5ODU3LDI5OC44MjAxOTIwMTkxNDQ3LDkwMy41NjE5NDA3NTYzNjUzTDI5Mi4yMzczODA5ODE0NDUzLDkwOS4yMjk0MTE5OTE3NDQ4Ij48L3BhdGg+PHBhdGggbWFya2VyLWVuZD0idXJsKCNjbGFzc0RpYWdyYW0tZGVwZW5kZW5jeUVuZCkiIHN0eWxlPSJmaWxsOm5vbmUiIGNsYXNzPSJlZGdlLXBhdHRlcm4tZGFzaGVkIHJlbGF0aW9uIiBpZD0iaWQ0IiBkPSJNMjIwLjk4NTAzMTEyNzkyOTcsMTA4LjgxOTQ0Mjc0OTAyMzQ0TDIyMC45ODUwMzExMjc5Mjk3LDExNC40ODEwOTQwNDI0NjAxM0MyMjAuOTg1MDMxMTI3OTI5NywxMjAuMTQyNzQ1MzM1ODk2OCwyMjAuOTg1MDMxMTI3OTI5NywxMzEuNDY2MDQ3OTIyNzcwMTcsMjIwLjk4NTAzMTEyNzkyOTcsMTQyLjc4OTM1MDUwOTY0MzU1QzIyMC45ODUwMzExMjc5Mjk3LDE1NC4xMTI2NTMwOTY1MTY5NCwyMjAuOTg1MDMxMTI3OTI5NywxNjUuNDM1OTU1NjgzMzkwMywyMjAuOTg1MDMxMTI3OTI5NywxNzEuMDk3NjA2OTc2ODI3TDIyMC45ODUwMzExMjc5Mjk3LDE3Ni43NTkyNTgyNzAyNjM2NyI+PC9wYXRoPjwvZz48ZyBjbGFzcz0iZWRnZUxhYmVscyI+PGcgdHJhbnNmb3JtPSJ0cmFuc2xhdGUoMTEwLjIzNTgxNTA0ODIxNzc3LCA3MDMuMDg1Njg1NzI5OTgwNSkiIGNsYXNzPSJlZGdlTGFiZWwiPjxnIHRyYW5zZm9ybT0idHJhbnNsYXRlKC0zMi42MTgwNDU4MDY4ODQ3NjYsIC04Ljk2OTkwNzc2MDYyMDExNykiIGNsYXNzPSJsYWJlbCI+PHJlY3QgaGVpZ2h0PSIxNy45NDAwODgyNzIwOTQ3MjciIHdpZHRoPSI2NS4yMzcwNzU4MDU2NjQwNiIgcnk9IjAiIHJ4PSIwIj48L3JlY3Q+PHRleHQgc3R5bGU9IiI+PHRzcGFuIGNsYXNzPSJyb3ciIHg9IjAiIGR5PSIxZW0iIHhtbDpzcGFjZT0icHJlc2VydmUiPnphcnrEhWR6YTwvdHNwYW4+PC90ZXh0PjwvZz48L2c+PGcgdHJhbnNmb3JtPSJ0cmFuc2xhdGUoMTA3LjkxODk1ODE3ODEyNjc5LCA1MDQuNzQxOTQ0OTcyMzcxNDcpIiBjbGFzcz0iZWRnZVRlcm1pbmFscyI+PGcgdHJhbnNmb3JtPSJ0cmFuc2xhdGUoLTMuMDYwODAwMDc1NTMxMDA2LCAtNi4wNzYzODg4MzU5MDY5ODIpIiBjbGFzcz0iaW5uZXIiPjx0ZXh0IHN0eWxlPSIiPjx0c3BhbiBjbGFzcz0icm93IiB4PSIwIiBkeT0iMWVtIiB4bWw6c3BhY2U9InByZXNlcnZlIj4xPC90c3Bhbj48L3RleHQ+PC9nPjwvZz48ZyB0cmFuc2Zvcm09InRyYW5zbGF0ZSgxNDEuMjU3NDY2MzAwOTU5OTIsIDg4MS40NDQwNDY0OTM1MDcxKSIgY2xhc3M9ImVkZ2VUZXJtaW5hbHMiPjxnIHRyYW5zZm9ybT0idHJhbnNsYXRlKC0yLjMxNDgxNDgwNTk4NDQ5NywgLTYuMDc2Mzg4ODM1OTA2OTgyKSIgY2xhc3M9ImlubmVyIj48L2c+PHRleHQgc3R5bGU9IiI+PHRzcGFuIGNsYXNzPSJyb3ciIHg9IjAiIGR5PSIxZW0iIHhtbDpzcGFjZT0icHJlc2VydmUiPio8L3RzcGFuPjwvdGV4dD48L2c+PGcgdHJhbnNmb3JtPSJ0cmFuc2xhdGUoMzMxLjczNDI0NzIwNzY0MTYsIDUzMC45NDY3ODY4ODA0OTMyKSIgY2xhc3M9ImVkZ2VMYWJlbCI+PGcgdHJhbnNmb3JtPSJ0cmFuc2xhdGUoLTMyLjYxODA0NTgwNjg4NDc2NiwgLTguOTY5OTA3NzYwNjIwMTE3KSIgY2xhc3M9ImxhYmVsIj48cmVjdCBoZWlnaHQ9IjE3Ljk0MDA4ODI3MjA5NDcyNyIgd2lkdGg9IjY1LjIzNzA3NTgwNTY2NDA2IiByeT0iMCIgcng9IjAiPjwvcmVjdD48dGV4dCBzdHlsZT0iIj48dHNwYW4gY2xhc3M9InJvdyIgeD0iMCIgZHk9IjFlbSIgeG1sOnNwYWNlPSJwcmVzZXJ2ZSI+emFyesSFZHphPC90c3Bhbj48L3RleHQ+PC9nPjwvZz48ZyB0cmFuc2Zvcm09InRyYW5zbGF0ZSgzMDcuOTk0OTcxMjI4MDI0MDQsIDUxOS42MTA2MzQ5MjUzNjc5KSIgY2xhc3M9ImVkZ2VUZXJtaW5hbHMiPjxnIHRyYW5zZm9ybT0idHJhbnNsYXRlKC0zLjA2MDgwMDA3NTUzMTAwNiwgLTYuMDc2Mzg4ODM1OTA2OTgyKSIgY2xhc3M9ImlubmVyIj48dGV4dCBzdHlsZT0iIj48dHNwYW4gY2xhc3M9InJvdyIgeD0iMCIgZHk9IjFlbSIgeG1sOnNwYWNlPSJwcmVzZXJ2ZSI+MTwvdHNwYW4+PC90ZXh0PjwvZz48L2c+PGcgdHJhbnNmb3JtPSJ0cmFuc2xhdGUoMzQxLjQ3NzM3MDUzNjU5MzY0LCA1NDIuMjY0Nzc1NzA2MDI1MSkiIGNsYXNzPSJlZGdlVGVybWluYWxzIj48ZyB0cmFuc2Zvcm09InRyYW5zbGF0ZSgtMi4zMTQ4MTQ4MDU5ODQ0OTcsIC02LjA3NjM4ODgzNTkwNjk4MikiIGNsYXNzPSJpbm5lciI+PC9nPjx0ZXh0IHN0eWxlPSIiPjx0c3BhbiBjbGFzcz0icm93IiB4PSIwIiBkeT0iMWVtIiB4bWw6c3BhY2U9InByZXNlcnZlIj4qPC90c3Bhbj48L3RleHQ+PC9nPjxnIHRyYW5zZm9ybT0idHJhbnNsYXRlKDMzMS43MzQyNDcyMDc2NDE2LCA4NzUuMjI0NTg0NTc5NDY3OCkiIGNsYXNzPSJlZGdlTGFiZWwiPjxnIHRyYW5zZm9ybT0idHJhbnNsYXRlKC0zOS41NjU5MTc5Njg3NSwgLTguOTY5OTA3NzYwNjIwMTE3KSIgY2xhc3M9ImxhYmVsIj48cmVjdCBoZWlnaHQ9IjE3Ljk0MDA4ODI3MjA5NDcyNyIgd2lkdGg9Ijc5LjEzMzAzMzc1MjQ0MTQiIHJ5PSIwIiByeD0iMCI+PC9yZWN0Pjx0ZXh0IHN0eWxlPSIiPjx0c3BhbiBjbGFzcz0icm93IiB4PSIwIiBkeT0iMWVtIiB4bWw6c3BhY2U9InByZXNlcnZlIj53eXBvxbx5Y3phPC90c3Bhbj48L3RleHQ+PC9nPjwvZz48ZyB0cmFuc2Zvcm09InRyYW5zbGF0ZSgzMTYuMzQ3NzM3MjU0NzIyNzQsIDg1OC4yMzc3NDUwMjI4MDA0KSIgY2xhc3M9ImVkZ2VUZXJtaW5hbHMiPjxnIHRyYW5zZm9ybT0idHJhbnNsYXRlKC0zLjA2MDgwMDA3NTUzMTAwNiwgLTYuMDc2Mzg4ODM1OTA2OTgyKSIgY2xhc3M9ImlubmVyIj48dGV4dCBzdHlsZT0iIj48dHNwYW4gY2xhc3M9InJvdyIgeD0iMCIgZHk9IjFlbSIgeG1sOnNwYWNlPSJwcmVzZXJ2ZSI+MTwvdHNwYW4+PC90ZXh0PjwvZz48L2c+PGcgdHJhbnNmb3JtPSJ0cmFuc2xhdGUoMzEwLjI4NjE4NjgyMjcwMjYzLCA5MDQuMTc4OTIxNDc3NTQ1NCkiIGNsYXNzPSJlZGdlVGVybWluYWxzIj48ZyB0cmFuc2Zvcm09InRyYW5zbGF0ZSgtMi4zMTQ4MTQ4MDU5ODQ0OTcsIC02LjA3NjM4ODgzNTkwNjk4MikiIGNsYXNzPSJpbm5lciI+PC9nPjx0ZXh0IHN0eWxlPSIiPjx0c3BhbiBjbGFzcz0icm93IiB4PSIwIiBkeT0iMWVtIiB4bWw6c3BhY2U9InByZXNlcnZlIj4qPC90c3Bhbj48L3RleHQ+PC9nPjxnIHRyYW5zZm9ybT0idHJhbnNsYXRlKDIyMC45ODUwMzExMjc5Mjk3LCAxNDIuNzg5MzUwNTA5NjQzNTUpIiBjbGFzcz0iZWRnZUxhYmVsIj48ZyB0cmFuc2Zvcm09InRyYW5zbGF0ZSgtMjIuODQxMDMwMTIwODQ5NjEsIC04Ljk2OTkwNzc2MDYyMDExNykiIGNsYXNzPSJsYWJlbCI+PHJlY3QgaGVpZ2h0PSIxNy45NDAwODgyNzIwOTQ3MjciIHdpZHRoPSI0NS42ODI3NTA3MDE5MDQzIiByeT0iMCIgcng9IjAiPjwvcmVjdD48dGV4dCBzdHlsZT0iIj48dHNwYW4gY2xhc3M9InJvdyIgeD0iMCIgZHk9IjFlbSIgeG1sOnNwYWNlPSJwcmVzZXJ2ZSI+dcW8eXdhPC90c3Bhbj48L3RleHQ+PC9nPjwvZz48L2c+PGcgY2xhc3M9Im5vZGVzIj48ZyB0cmFuc2Zvcm09InRyYW5zbGF0ZSgyMjAuOTg1MDMxMTI3OTI5NywgMzM2Ljg2ODA2ODY5NTA2ODM2KSIgaWQ9ImNsYXNzaWQtTGlicmFyeS0wIiBjbGFzcz0ibm9kZSBkZWZhdWx0Ij48cmVjdCBoZWlnaHQ9IjMyMC4yMTc2MDE3NzYxMjMwNSIgd2lkdGg9IjQyNS45NzAwNjIyNTU4NTk0IiB5PSItMTYwLjEwODgwMDg4ODA2MTUyIiB4PSItMjEyLjk4NTAzMTEyNzkyOTciIGNsYXNzPSJvdXRlciB0aXRsZS1zdGF0ZSI+PC9yZWN0PjxsaW5lIHkyPSItMTMwLjE2ODk4NTM2NjgyMTMiIHkxPSItMTMwLjE2ODk4NTM2NjgyMTMiIHgyPSIyMTIuOTg1MDMxMTI3OTI5NyIgeDE9Ii0yMTIuOTg1MDMxMTI3OTI5NyIgY2xhc3M9ImRpdmlkZXIiPjwvbGluZT48bGluZSB5Mj0iLTcwLjI4OTM1NDMyNDM0MDgyIiB5MT0iLTcwLjI4OTM1NDMyNDM0MDgyIiB4Mj0iMjEyLjk4NTAzMTEyNzkyOTciIHgxPSItMjEyLjk4NTAzMTEyNzkyOTciIGNsYXNzPSJkaXZpZGVyIj48L2xpbmU+PGcgY2xhc3M9ImxhYmVsIj48dGV4dCBzdHlsZT0iIj48dHNwYW4gY2xhc3M9InRpdGxlLXJvdyIgeD0iMCIgZHk9IjFlbSIgeG1sOnNwYWNlPSJwcmVzZXJ2ZSI+PC90c3Bhbj48L3RleHQ+PHRleHQgdHJhbnNmb3JtPSJ0cmFuc2xhdGUoIC0yNy4yODI2NDQyNzE4NTA1ODYsIC0xNTIuNjA4ODAwODg4MDYxNTIpIiBjbGFzcz0iY2xhc3NUaXRsZSIgc3R5bGU9IiI+PHRzcGFuIGNsYXNzPSJ0aXRsZS1yb3ciIHg9IjAiIGR5PSIxZW0iIHhtbDpzcGFjZT0icHJlc2VydmUiPkxpYnJhcnk8L3RzcGFuPjwvdGV4dD48dGV4dCB0cmFuc2Zvcm09InRyYW5zbGF0ZSggLTIwNS40ODUwMzExMjc5Mjk3LCAtMTE4LjY2ODk4NTM2NjgyMTI5KSIgc3R5bGU9IiI+PHRzcGFuIGNsYXNzPSJ0aXRsZS1yb3ciIHg9IjAiIGR5PSIxZW0iIHhtbDpzcGFjZT0icHJlc2VydmUiPi1MaXN0Jmx0O0Jvb2smZ3Q7IGJvb2tzPC90c3Bhbj48L3RleHQ+PHRleHQgdHJhbnNmb3JtPSJ0cmFuc2xhdGUoIC0yMDUuNDg1MDMxMTI3OTI5NywgLTk2LjcyOTE2OTg0NTU4MTA1KSIgc3R5bGU9IiI+PHRzcGFuIGNsYXNzPSJ0aXRsZS1yb3ciIHg9IjAiIGR5PSIxZW0iIHhtbDpzcGFjZT0icHJlc2VydmUiPi1MaXN0Jmx0O0N1c3RvbWVyJmd0OyBjdXN0b21lcnM8L3RzcGFuPjwvdGV4dD48dGV4dCB0cmFuc2Zvcm09InRyYW5zbGF0ZSggLTIwNS40ODUwMzExMjc5Mjk3LCAtNjIuNzg5MzU0MzI0MzQwODIpIiBzdHlsZT0iIj48dHNwYW4gY2xhc3M9InRpdGxlLXJvdyIgeD0iMCIgZHk9IjFlbSIgeG1sOnNwYWNlPSJwcmVzZXJ2ZSI+K2FkZEJvb2soQm9vayBib29rKTwvdHNwYW4+PC90ZXh0Pjx0ZXh0IHRyYW5zZm9ybT0idHJhbnNsYXRlKCAtMjA1LjQ4NTAzMTEyNzkyOTcsIC00MC44NDk1Mzg4MDMxMDA1ODYpIiBzdHlsZT0iIj48dHNwYW4gY2xhc3M9InRpdGxlLXJvdyIgeD0iMCIgZHk9IjFlbSIgeG1sOnNwYWNlPSJwcmVzZXJ2ZSI+K2RlbGV0ZUJvb2soQm9vayBib29rKTwvdHNwYW4+PC90ZXh0Pjx0ZXh0IHRyYW5zZm9ybT0idHJhbnNsYXRlKCAtMjA1LjQ4NTAzMTEyNzkyOTcsIC0xOC45MDk3MjMyODE4NjAzNSkiIHN0eWxlPSIiPjx0c3BhbiBjbGFzcz0idGl0bGUtcm93IiB4PSIwIiBkeT0iMWVtIiB4bWw6c3BhY2U9InByZXNlcnZlIj4rYWRkQ3VzdG9tZXIoQ3VzdG9tZXIgY3VzdG9tZXIpPC90c3Bhbj48L3RleHQ+PHRleHQgdHJhbnNmb3JtPSJ0cmFuc2xhdGUoIC0yMDUuNDg1MDMxMTI3OTI5NywgMy4wMzAwOTIyMzkzNzk4ODMpIiBzdHlsZT0iIj48dHNwYW4gY2xhc3M9InRpdGxlLXJvdyIgeD0iMCIgZHk9IjFlbSIgeG1sOnNwYWNlPSJwcmVzZXJ2ZSI+K3JlbnRCb29rKFN0cmluZyB0aXRsZSwgU3RyaW5nIG5hbWUsIFN0cmluZyBzdXJuYW1lKTwvdHNwYW4+PC90ZXh0Pjx0ZXh0IHRyYW5zZm9ybT0idHJhbnNsYXRlKCAtMjA1LjQ4NTAzMTEyNzkyOTcsIDI0Ljk2OTkwNzc2MDYyMDExNykiIHN0eWxlPSIiPjx0c3BhbiBjbGFzcz0idGl0bGUtcm93IiB4PSIwIiBkeT0iMWVtIiB4bWw6c3BhY2U9InByZXNlcnZlIj4rZ2l2ZUJhY2soU3RyaW5nIHRpdGxlLCBTdHJpbmcgbmFtZSwgU3RyaW5nIHN1cm5hbWUpPC90c3Bhbj48L3RleHQ+PHRleHQgdHJhbnNmb3JtPSJ0cmFuc2xhdGUoIC0yMDUuNDg1MDMxMTI3OTI5NywgNDYuOTA5NzIzMjgxODYwMzUpIiBzdHlsZT0iIj48dHNwYW4gY2xhc3M9InRpdGxlLXJvdyIgeD0iMCIgZHk9IjFlbSIgeG1sOnNwYWNlPSJwcmVzZXJ2ZSI+K3Nob3dDdXN0b21lcnMoKTwvdHNwYW4+PC90ZXh0Pjx0ZXh0IHRyYW5zZm9ybT0idHJhbnNsYXRlKCAtMjA1LjQ4NTAzMTEyNzkyOTcsIDY4Ljg0OTUzODgwMzEwMDU5KSIgc3R5bGU9IiI+PHRzcGFuIGNsYXNzPSJ0aXRsZS1yb3ciIHg9IjAiIGR5PSIxZW0iIHhtbDpzcGFjZT0icHJlc2VydmUiPitzaG93Qm9va3MoKTwvdHNwYW4+PC90ZXh0Pjx0ZXh0IHRyYW5zZm9ybT0idHJhbnNsYXRlKCAtMjA1LjQ4NTAzMTEyNzkyOTcsIDkwLjc4OTM1NDMyNDM0MDgyKSIgc3R5bGU9IiI+PHRzcGFuIGNsYXNzPSJ0aXRsZS1yb3ciIHg9IjAiIGR5PSIxZW0iIHhtbDpzcGFjZT0icHJlc2VydmUiPitzZWFyY2hDdXN0b21lcihTdHJpbmcgbmFtZSwgU3RyaW5nIHN1cm5hbWUpIDogYm9vbGVhbjwvdHNwYW4+PC90ZXh0Pjx0ZXh0IHRyYW5zZm9ybT0idHJhbnNsYXRlKCAtMjA1LjQ4NTAzMTEyNzkyOTcsIDExMi43MjkxNjk4NDU1ODEwNSkiIHN0eWxlPSIiPjx0c3BhbiBjbGFzcz0idGl0bGUtcm93IiB4PSIwIiBkeT0iMWVtIiB4bWw6c3BhY2U9InByZXNlcnZlIj4rc2VhcmNoQm9vayhTdHJpbmcgdGl0bGUpIDogYm9vbGVhbjwvdHNwYW4+PC90ZXh0Pjx0ZXh0IHRyYW5zZm9ybT0idHJhbnNsYXRlKCAtMjA1LjQ4NTAzMTEyNzkyOTcsIDEzNC42Njg5ODUzNjY4MjEzKSIgc3R5bGU9IiI+PHRzcGFuIGNsYXNzPSJ0aXRsZS1yb3ciIHg9IjAiIGR5PSIxZW0iIHhtbDpzcGFjZT0icHJlc2VydmUiPitjb3VudENvcGllcyhCb29rIGJvb2spIDogaW50PC90c3Bhbj48L3RleHQ+PC9nPjwvZz48ZyB0cmFuc2Zvcm09InRyYW5zbGF0ZSgzMzEuNzM0MjQ3MjA3NjQxNiwgNzAzLjA4NTY4NTcyOTk4MDUpIiBpZD0iY2xhc3NpZC1DdXN0b21lci0xIiBjbGFzcz0ibm9kZSBkZWZhdWx0Ij48cmVjdCBoZWlnaHQ9IjI3Ni4zMzc5NzA3MzM2NDI2IiB3aWR0aD0iMzA3Ljc2MDc3MjcwNTA3ODEiIHk9Ii0xMzguMTY4OTg1MzY2ODIxMyIgeD0iLTE1My44ODAzODYzNTI1MzkwNiIgY2xhc3M9Im91dGVyIHRpdGxlLXN0YXRlIj48L3JlY3Q+PGxpbmUgeTI9Ii0xMDguMjI5MTY5ODQ1NTgxMDUiIHkxPSItMTA4LjIyOTE2OTg0NTU4MTA1IiB4Mj0iMTUzLjg4MDM4NjM1MjUzOTA2IiB4MT0iLTE1My44ODAzODYzNTI1MzkwNiIgY2xhc3M9ImRpdmlkZXIiPjwvbGluZT48bGluZSB5Mj0iLTQuNDY5OTA3NzYwNjIwMTE3IiB5MT0iLTQuNDY5OTA3NzYwNjIwMTE3IiB4Mj0iMTUzLjg4MDM4NjM1MjUzOTA2IiB4MT0iLTE1My44ODAzODYzNTI1MzkwNiIgY2xhc3M9ImRpdmlkZXIiPjwvbGluZT48ZyBjbGFzcz0ibGFiZWwiPjx0ZXh0IHN0eWxlPSIiPjx0c3BhbiBjbGFzcz0idGl0bGUtcm93IiB4PSIwIiBkeT0iMWVtIiB4bWw6c3BhY2U9InByZXNlcnZlIj48L3RzcGFuPjwvdGV4dD48dGV4dCB0cmFuc2Zvcm09InRyYW5zbGF0ZSggLTM3LjM4MDk1ODU1NzEyODkwNiwgLTEzMC42Njg5ODUzNjY4MjEzKSIgY2xhc3M9ImNsYXNzVGl0bGUiIHN0eWxlPSIiPjx0c3BhbiBjbGFzcz0idGl0bGUtcm93IiB4PSIwIiBkeT0iMWVtIiB4bWw6c3BhY2U9InByZXNlcnZlIj5DdXN0b21lcjwvdHNwYW4+PC90ZXh0Pjx0ZXh0IHRyYW5zZm9ybT0idHJhbnNsYXRlKCAtMTQ2LjM4MDM4NjM1MjUzOTA2LCAtOTYuNzI5MTY5ODQ1NTgxMDUpIiBzdHlsZT0iIj48dHNwYW4gY2xhc3M9InRpdGxlLXJvdyIgeD0iMCIgZHk9IjFlbSIgeG1sOnNwYWNlPSJwcmVzZXJ2ZSI+LVN0cmluZyBuYW1lPC90c3Bhbj48L3RleHQ+PHRleHQgdHJhbnNmb3JtPSJ0cmFuc2xhdGUoIC0xNDYuMzgwMzg2MzUyNTM5MDYsIC03NC43ODkzNTQzMjQzNDA4MikiIHN0eWxlPSIiPjx0c3BhbiBjbGFzcz0idGl0bGUtcm93IiB4PSIwIiBkeT0iMWVtIiB4bWw6c3BhY2U9InByZXNlcnZlIj4tU3RyaW5nIHN1cm5hbWU8L3RzcGFuPjwvdGV4dD48dGV4dCB0cmFuc2Zvcm09InRyYW5zbGF0ZSggLTE0Ni4zODAzODYzNTI1MzkwNiwgLTUyLjg0OTUzODgwMzEwMDU4NikiIHN0eWxlPSIiPjx0c3BhbiBjbGFzcz0idGl0bGUtcm93IiB4PSIwIiBkeT0iMWVtIiB4bWw6c3BhY2U9InByZXNlcnZlIj4taW50IGhvd01hbnlCb3Jyb3dlZDwvdHNwYW4+PC90ZXh0Pjx0ZXh0IHRyYW5zZm9ybT0idHJhbnNsYXRlKCAtMTQ2LjM4MDM4NjM1MjUzOTA2LCAtMzAuOTA5NzIzMjgxODYwMzUpIiBzdHlsZT0iIj48dHNwYW4gY2xhc3M9InRpdGxlLXJvdyIgeD0iMCIgZHk9IjFlbSIgeG1sOnNwYWNlPSJwcmVzZXJ2ZSI+LUxpc3QmbHQ7Qm9vayZndDsgYm9ycm93ZWRCb29rczwvdHNwYW4+PC90ZXh0Pjx0ZXh0IHRyYW5zZm9ybT0idHJhbnNsYXRlKCAtMTQ2LjM4MDM4NjM1MjUzOTA2LCAzLjAzMDA5MjIzOTM3OTg4MykiIHN0eWxlPSIiPjx0c3BhbiBjbGFzcz0idGl0bGUtcm93IiB4PSIwIiBkeT0iMWVtIiB4bWw6c3BhY2U9InByZXNlcnZlIj4rQ3VzdG9tZXIoU3RyaW5nIG5hbWUsIFN0cmluZyBzdXJuYW1lKTwvdHNwYW4+PC90ZXh0Pjx0ZXh0IHRyYW5zZm9ybT0idHJhbnNsYXRlKCAtMTQ2LjM4MDM4NjM1MjUzOTA2LCAyNC45Njk5MDc3NjA2MjAxMTcpIiBzdHlsZT0iIj48dHNwYW4gY2xhc3M9InRpdGxlLXJvdyIgeD0iMCIgZHk9IjFlbSIgeG1sOnNwYWNlPSJwcmVzZXJ2ZSI+K2dldE5hbWUoKSA6IFN0cmluZzwvdHNwYW4+PC90ZXh0Pjx0ZXh0IHRyYW5zZm9ybT0idHJhbnNsYXRlKCAtMTQ2LjM4MDM4NjM1MjUzOTA2LCA0Ni45MDk3MjMyODE4NjAzNSkiIHN0eWxlPSIiPjx0c3BhbiBjbGFzcz0idGl0bGUtcm93IiB4PSIwIiBkeT0iMWVtIiB4bWw6c3BhY2U9InByZXNlcnZlIj4rZ2V0TnVtYmVyKCkgOiBpbnQ8L3RzcGFuPjwvdGV4dD48dGV4dCB0cmFuc2Zvcm09InRyYW5zbGF0ZSggLTE0Ni4zODAzODYzNTI1MzkwNiwgNjguODQ5NTM4ODAzMTAwNTkpIiBzdHlsZT0iIj48dHNwYW4gY2xhc3M9InRpdGxlLXJvdyIgeD0iMCIgZHk9IjFlbSIgeG1sOnNwYWNlPSJwcmVzZXJ2ZSI+K2JvcnJvdyhCb29rIGJvb2spPC90c3Bhbj48L3RleHQ+PHRleHQgdHJhbnNmb3JtPSJ0cmFuc2xhdGUoIC0xNDYuMzgwMzg2MzUyNTM5MDYsIDkwLjc4OTM1NDMyNDM0MDgyKSIgc3R5bGU9IiI+PHRzcGFuIGNsYXNzPSJ0aXRsZS1yb3ciIHg9IjAiIGR5PSIxZW0iIHhtbDpzcGFjZT0icHJlc2VydmUiPitnaXZlQm9va0JhY2soQm9vayBib29rKTwvdHNwYW4+PC90ZXh0Pjx0ZXh0IHRyYW5zZm9ybT0idHJhbnNsYXRlKCAtMTQ2LjM4MDM4NjM1MjUzOTA2LCAxMTIuNzI5MTY5ODQ1NTgxMDUpIiBzdHlsZT0iIj48dHNwYW4gY2xhc3M9InRpdGxlLXJvdyIgeD0iMCIgZHk9IjFlbSIgeG1sOnNwYWNlPSJwcmVzZXJ2ZSI+K2dldEJvcnJvd2VkQm9va3MoKSA6IExpc3QmbHQ7Qm9vayZndDs8L3RzcGFuPjwvdGV4dD48L2c+PC9nPjxnIHRyYW5zZm9ybT0idHJhbnNsYXRlKDIyMC45ODUwMzExMjc5Mjk3LCA5NzAuNTc0MTIzMzgyNTY4NCkiIGlkPSJjbGFzc2lkLUJvb2stMiIgY2xhc3M9Im5vZGUgZGVmYXVsdCI+PHJlY3QgaGVpZ2h0PSIxMjIuNzU5MjYyMDg0OTYwOTQiIHdpZHRoPSIxNDIuNTA0Njk5NzA3MDMxMjUiIHk9Ii02MS4zNzk2MzEwNDI0ODA0NyIgeD0iLTcxLjI1MjM0OTg1MzUxNTYyIiBjbGFzcz0ib3V0ZXIgdGl0bGUtc3RhdGUiPjwvcmVjdD48bGluZSB5Mj0iLTMxLjQzOTgxNTUyMTI0MDIzNCIgeTE9Ii0zMS40Mzk4MTU1MjEyNDAyMzQiIHgyPSI3MS4yNTIzNDk4NTM1MTU2MiIgeDE9Ii03MS4yNTIzNDk4NTM1MTU2MiIgY2xhc3M9ImRpdmlkZXIiPjwvbGluZT48bGluZSB5Mj0iNi41IiB5MT0iNi41IiB4Mj0iNzEuMjUyMzQ5ODUzNTE1NjIiIHgxPSItNzEuMjUyMzQ5ODUzNTE1NjIiIGNsYXNzPSJkaXZpZGVyIj48L2xpbmU+PGcgY2xhc3M9ImxhYmVsIj48dGV4dCBzdHlsZT0iIj48dHNwYW4gY2xhc3M9InRpdGxlLXJvdyIgeD0iMCIgZHk9IjFlbSIgeG1sOnNwYWNlPSJwcmVzZXJ2ZSI+PC90c3Bhbj48L3RleHQ+PHRleHQgdHJhbnNmb3JtPSJ0cmFuc2xhdGUoIC0yMC4xNjc0NzQ3NDY3MDQxLCAtNTMuODc5NjMxMDQyNDgwNDcpIiBjbGFzcz0iY2xhc3NUaXRsZSIgc3R5bGU9IiI+PHRzcGFuIGNsYXNzPSJ0aXRsZS1yb3ciIHg9IjAiIGR5PSIxZW0iIHhtbDpzcGFjZT0icHJlc2VydmUiPkJvb2s8L3RzcGFuPjwvdGV4dD48dGV4dCB0cmFuc2Zvcm09InRyYW5zbGF0ZSggLTYzLjc1MjM0OTg1MzUxNTYyNSwgLTE5LjkzOTgxNTUyMTI0MDIzNCkiIHN0eWxlPSIiPjx0c3BhbiBjbGFzcz0idGl0bGUtcm93IiB4PSIwIiBkeT0iMWVtIiB4bWw6c3BhY2U9InByZXNlcnZlIj4tU3RyaW5nIHRpdGxlPC90c3Bhbj48L3RleHQ+PHRleHQgdHJhbnNmb3JtPSJ0cmFuc2xhdGUoIC02My43NTIzNDk4NTM1MTU2MjUsIDE0KSIgc3R5bGU9IiI+PHRzcGFuIGNsYXNzPSJ0aXRsZS1yb3ciIHg9IjAiIGR5PSIxZW0iIHhtbDpzcGFjZT0icHJlc2VydmUiPitCb29rKFN0cmluZyB0aXRsZSk8L3RzcGFuPjwvdGV4dD48dGV4dCB0cmFuc2Zvcm09InRyYW5zbGF0ZSggLTYzLjc1MjM0OTg1MzUxNTYyNSwgMzUuOTM5ODE1NTIxMjQwMjM0KSIgc3R5bGU9IiI+PHRzcGFuIGNsYXNzPSJ0aXRsZS1yb3ciIHg9IjAiIGR5PSIxZW0iIHhtbDpzcGFjZT0icHJlc2VydmUiPitnZXRUaXRsZSgpIDogU3RyaW5nPC90c3Bhbj48L3RleHQ+PC9nPjwvZz48ZyB0cmFuc2Zvcm09InRyYW5zbGF0ZSgyMjAuOTg1MDMxMTI3OTI5NywgNTguNDA5NzIxMzc0NTExNzIpIiBpZD0iY2xhc3NpZC1NYWluLTMiIGNsYXNzPSJub2RlIGRlZmF1bHQiPjxyZWN0IGhlaWdodD0iMTAwLjgxOTQ0NjU2MzcyMDciIHdpZHRoPSIxNTUuODIzOTI4ODMzMDA3OCIgeT0iLTUwLjQwOTcyMzI4MTg2MDM1IiB4PSItNzcuOTExOTY0NDE2NTAzOSIgY2xhc3M9Im91dGVyIHRpdGxlLXN0YXRlIj48L3JlY3Q+PGxpbmUgeTI9Ii0yMC40Njk5MDc3NjA2MjAxMTciIHkxPSItMjAuNDY5OTA3NzYwNjIwMTE3IiB4Mj0iNzcuOTExOTY0NDE2NTAzOSIgeDE9Ii03Ny45MTE5NjQ0MTY1MDM5IiBjbGFzcz0iZGl2aWRlciI+PC9saW5lPjxsaW5lIHkyPSIxNy40Njk5MDc3NjA2MjAxMTciIHkxPSIxNy40Njk5MDc3NjA2MjAxMTciIHgyPSI3Ny45MTE5NjQ0MTY1MDM5IiB4MT0iLTc3LjkxMTk2NDQxNjUwMzkiIGNsYXNzPSJkaXZpZGVyIj48L2xpbmU+PGcgY2xhc3M9ImxhYmVsIj48dGV4dCBzdHlsZT0iIj48dHNwYW4gY2xhc3M9InRpdGxlLXJvdyIgeD0iMCIgZHk9IjFlbSIgeG1sOnNwYWNlPSJwcmVzZXJ2ZSI+PC90c3Bhbj48L3RleHQ+PHRleHQgdHJhbnNmb3JtPSJ0cmFuc2xhdGUoIC0xOC4yMTEwODI0NTg0OTYwOTQsIC00Mi45MDk3MjMyODE4NjAzNSkiIGNsYXNzPSJjbGFzc1RpdGxlIiBzdHlsZT0iIj48dHNwYW4gY2xhc3M9InRpdGxlLXJvdyIgeD0iMCIgZHk9IjFlbSIgeG1sOnNwYWNlPSJwcmVzZXJ2ZSI+TWFpbjwvdHNwYW4+PC90ZXh0Pjx0ZXh0IHRyYW5zZm9ybT0idHJhbnNsYXRlKCAtNzAuNDExOTY0NDE2NTAzOSwgLTguOTY5OTA3NzYwNjIwMTE3KSIgc3R5bGU9IiI+PHRzcGFuIGNsYXNzPSJ0aXRsZS1yb3ciIHg9IjAiIGR5PSIxZW0iIHhtbDpzcGFjZT0icHJlc2VydmUiPi1MaWJyYXJ5IGxpYnJhcnk8L3RzcGFuPjwvdGV4dD48dGV4dCB0cmFuc2Zvcm09InRyYW5zbGF0ZSggLTcwLjQxMTk2NDQxNjUwMzksIDI0Ljk2OTkwNzc2MDYyMDExNykiIHN0eWxlPSIiPjx0c3BhbiBjbGFzcz0idGl0bGUtcm93IiB4PSIwIiBkeT0iMWVtIiB4bWw6c3BhY2U9InByZXNlcnZlIj4rbWFpbihTdHJpbmdbXSBhcmdzKTwvdHNwYW4+PC90ZXh0PjwvZz48L2c+PC9nPjwvZz48L2c+PC9zdmc+;" parent="1" vertex="1">
                        <mxGeometry x="350" y="-300" width="100" height="1039.9537544250488" as="geometry"/>
                    </mxCell>
                </UserObject>
            </root>
        </mxGraphModel>
    </diagram>
</mxfile>